<svg xmlns="http://www.w3.org/2000/svg" width="40" height="40"><path fill="#2BD0D0" d="M19.968 0c11.01 0 19.969 8.958 19.969 19.968s-8.958 19.969-19.969 19.969C8.958 39.937 0 30.979 0 19.968 0 8.958 8.958 0 19.968 0zm7.805 35.579c-4.863-2.402-10.746-2.402-15.609 0a17.339 17.339 0 007.804 1.862 17.34 17.34 0 007.805-1.862zm-6.556-33.02V6.24H18.72V2.56a17.362 17.362 0 00-9.492 3.656l2.798 2.797-1.765 1.765L7.373 7.89a17.41 17.41 0 00-4.678 9.582h4.793v2.497H2.496c0 5.805 2.857 10.943 7.227 14.122 6.217-3.714 14.274-3.714 20.49 0 4.37-3.179 7.228-8.317 7.228-14.123h-4.992v-2.496h4.793a17.41 17.41 0 00-4.678-9.582l-2.888 2.888-1.765-1.765 2.798-2.797a17.362 17.362 0 00-9.492-3.657zm-2.437 8.292c.332-1.034 2.045-1.034 2.377 0 .635 1.978 3.804 11.955 3.804 14.11a4.997 4.997 0 01-4.993 4.992 4.997 4.997 0 01-4.992-4.992c0-2.155 3.17-12.132 3.804-14.11zm1.188 4.567c-1.233 4.047-2.496 8.522-2.496 9.543a2.5 2.5 0 002.496 2.496 2.5 2.5 0 002.497-2.496c0-1.02-1.263-5.496-2.497-9.543z"/></svg>