<?xml version="1.0" standalone="no"?>
<!DOCTYPE svg PUBLIC "-//W3C//DTD SVG 20010904//EN"
 "http://www.w3.org/TR/2001/REC-SVG-20010904/DTD/svg10.dtd">
<svg version="1.0" xmlns="http://www.w3.org/2000/svg"
 width="1102.000000pt" height="1280.000000pt" viewBox="0 0 1102.000000 1280.000000"
 preserveAspectRatio="xMidYMid meet">
<metadata>
Created by potrace 1.15, written by Peter Selinger 2001-2017
</metadata>
<g transform="translate(0.000000,1280.000000) scale(0.100000,-0.100000)"
fill="#000000" stroke="none">
<path d="M3140 12794 c-247 -22 -429 -51 -645 -104 -812 -199 -1529 -658
-1891 -1210 -540 -825 -734 -2070 -515 -3300 61 -340 98 -459 284 -920 133
-330 176 -458 223 -665 127 -548 198 -1192 210 -1895 7 -386 -5 -643 -36 -784
-37 -168 -118 -404 -249 -733 -253 -633 -331 -917 -332 -1203 0 -288 76 -466
288 -671 190 -184 398 -305 968 -564 327 -148 560 -243 787 -319 552 -186
1117 -306 1753 -371 424 -44 1082 -67 1335 -46 572 47 1107 195 1394 386 97
65 134 104 170 181 37 77 55 179 66 369 6 94 17 231 25 305 8 74 21 205 29
290 52 542 90 785 162 1038 63 219 113 329 279 607 348 583 659 1043 1480
2195 521 730 578 811 875 1245 128 187 283 412 345 500 506 724 706 1107 798
1525 145 653 78 1427 -168 1935 -78 162 -165 285 -280 400 -264 262 -589 417
-1020 486 -114 18 -181 22 -365 22 -321 0 -543 -30 -909 -124 -167 -42 -191
-46 -191 -26 0 26 -96 203 -142 264 -125 162 -305 269 -551 328 -186 45 -337
55 -857 55 -528 0 -639 7 -818 51 -234 57 -353 106 -852 352 -542 267 -736
336 -1070 383 -101 14 -487 26 -580 18z m565 -219 c265 -35 472 -91 711 -191
88 -37 223 -93 302 -125 280 -116 416 -197 502 -299 l42 -50 -24 -9 c-209 -85
-292 -130 -423 -229 -462 -348 -862 -1005 -1050 -1727 -68 -261 -85 -386 -111
-850 -19 -321 -15 -470 15 -587 26 -101 52 -149 115 -214 61 -63 79 -69 72
-21 -35 214 -41 741 -12 1037 86 887 363 1582 806 2021 267 264 559 413 997
508 209 45 365 63 609 68 651 16 1176 -148 1467 -456 305 -324 418 -854 336
-1581 -29 -260 -105 -492 -250 -760 -79 -148 -183 -306 -400 -610 -200 -280
-317 -452 -379 -559 -57 -99 -123 -231 -118 -237 9 -9 196 93 258 141 423 323
897 1148 1041 1810 19 85 22 131 21 300 0 110 -5 252 -11 315 -6 63 -11 189
-11 280 1 275 45 415 171 541 235 237 882 335 1301 198 376 -123 671 -419 858
-863 94 -222 161 -487 196 -776 21 -174 24 -570 5 -655 -83 -381 -189 -701
-350 -1054 -90 -200 -145 -294 -546 -936 -678 -1087 -966 -1502 -1385 -1995
-58 -69 -164 -201 -235 -295 -311 -411 -506 -605 -692 -692 -145 -67 -258 -54
-362 43 -76 70 -96 117 -89 213 9 126 89 262 698 1191 227 346 425 668 417
676 -2 3 -33 -15 -69 -39 -203 -136 -319 -286 -603 -777 -174 -300 -250 -417
-355 -543 -125 -149 -283 -273 -400 -313 -76 -26 -266 -26 -365 0 -304 80
-550 292 -596 514 -18 88 -6 314 24 442 50 210 132 419 268 678 62 120 67 132
41 113 -74 -52 -177 -193 -233 -318 -17 -37 -67 -174 -111 -303 -109 -319
-161 -422 -275 -532 -58 -57 -135 -93 -228 -108 -101 -16 -243 2 -480 61 -66
17 -185 44 -265 60 -405 82 -555 161 -621 325 -23 57 -24 69 -25 359 -1 319
-6 428 -30 620 -25 202 -92 547 -110 564 -3 3 -3 -9 1 -28 12 -55 21 -579 13
-772 -13 -325 -65 -574 -143 -684 -90 -127 -288 -195 -566 -195 -325 0 -611
107 -688 258 -20 39 -23 65 -88 825 -15 174 -30 317 -34 317 -7 0 -45 -170
-54 -240 -3 -25 -10 -155 -15 -290 -12 -319 -37 -463 -97 -567 -32 -55 -146
-162 -214 -200 -85 -48 -151 -66 -228 -61 -109 6 -159 54 -205 198 -38 118
-48 237 -56 670 -5 223 -11 416 -14 430 -3 14 -13 70 -21 125 -27 164 -70 358
-155 693 -44 175 -83 322 -85 327 -6 12 0 -64 26 -335 55 -573 83 -946 100
-1320 10 -223 9 -273 -5 -400 -28 -239 -68 -377 -124 -420 -34 -27 -49 -25
-86 12 -77 77 -152 372 -206 805 -69 555 -90 635 -388 1488 -190 545 -264 973
-265 1535 -1 479 58 900 184 1320 87 290 230 621 364 840 125 206 310 419 510
588 285 240 697 457 1110 585 192 60 504 118 730 137 151 12 494 4 640 -15z
m-925 -7395 c1154 -45 2186 -256 3050 -625 144 -62 168 -73 715 -350 497 -252
578 -302 700 -437 76 -84 99 -135 103 -230 6 -121 -20 -190 -169 -449 -87
-151 -105 -192 -153 -353 -75 -248 -137 -583 -176 -961 -18 -173 -40 -544 -40
-692 0 -79 -2 -143 -5 -143 -3 0 -50 22 -104 50 -1075 539 -2342 903 -3586
1030 -935 95 -1861 47 -2604 -135 l-133 -33 7 77 c11 126 25 209 60 356 43
182 73 273 217 670 177 484 228 655 269 901 19 113 22 163 21 394 -3 382 20
544 92 658 94 149 336 253 656 282 109 10 692 4 1080 -10z m76 -3380 c1298
-74 2364 -338 3334 -824 249 -125 378 -210 443 -294 62 -80 21 -158 -118 -222
-324 -150 -721 -248 -1140 -281 -186 -15 -649 -6 -825 15 -595 73 -1001 171
-1750 422 -506 169 -609 208 -775 289 -342 166 -492 345 -455 544 36 193 195
303 505 346 112 16 542 18 781 5z"/>
<path d="M3170 11785 c-292 -81 -586 -374 -795 -794 -167 -335 -239 -680 -190
-912 15 -69 51 -159 65 -159 3 0 7 17 8 38 4 63 40 264 66 363 180 690 607
1245 1081 1404 44 15 87 29 95 32 9 3 0 11 -25 20 -59 22 -236 27 -305 8z"/>
<path d="M9280 10496 c0 -3 26 -72 59 -153 161 -406 213 -672 182 -929 -32
-256 -58 -354 -184 -694 -88 -239 -141 -397 -151 -450 -7 -35 -7 -35 59 34
169 177 305 469 375 806 108 523 23 1024 -218 1282 -47 51 -122 114 -122 104z"/>
</g>
</svg>
