<svg xmlns="http://www.w3.org/2000/svg" xmlns:data="ApexChartsNS" width="100" height="40" class="apexcharts-svg" style="background:0 0" version="1.1"><g class="apexcharts-inner apexcharts-graphical"><defs><linearGradient id="a" x1="0" x2="0" y1="0" y2="1"><stop offset="0" stop-color="rgba(88,189,125,0.65)" stop-opacity=".65"/><stop offset="1" stop-color="rgba(172,222,190,0.5)" stop-opacity=".5"/><stop offset="1" stop-color="rgba(172,222,190,0.5)" stop-opacity=".5"/></linearGradient><clipPath id="b"><rect fill="#fff" width="106" height="42" x="-3" y="-1" stroke="none" stroke-dasharray="0" stroke-width="0" opacity="1" rx="0" ry="0"/></clipPath></defs><path d="M0 40h100M0 1v39" stroke="transparent" stroke-dasharray="0" stroke-linecap="butt" class="apexcharts-grid"/><g class="apexcharts-area-series apexcharts-plot-series"><g data:longestSeries="true" data:realIndex="0" fill-opacity="1" stroke-dasharray="0" stroke-linecap="butt" stroke-opacity="1" class="apexcharts-series" rel="1" seriesName="seriesx1"><path d="M0 40V30c2.5 0 4.643-16.4 7.143-16.4s4.643 10 7.143 10 4.643-19.2 7.143-19.2 4.642 10.4 7.142 10.4c2.503 0 4.646 15.2 7.146 15.2s4.643-7.6 7.143-7.6 4.64 9.6 7.14 9.6 4.644-6.4 7.144-6.4 4.643-1.6 7.143-1.6 4.643-5.6 7.143-5.6 4.642-14 7.142-14 4.643 10.4 7.143 10.4S90.357 30 92.857 30 97.5 8 100 8v32m0-32z" fill="url(#a)" class="apexcharts-area" clip-path="url(#b)" index="0" pathFrom="M -1 40L -1 40L 7.142857142857142 40L 14.285714285714285 40L 21.428571428571427 40L 28.57142857142857 40L 35.71428571428571 40L 42.857142857142854 40L 49.99999999999999 40L 57.14285714285714 40L 64.28571428571428 40L 71.42857142857142 40L 78.57142857142857 40L 85.71428571428571 40L 92.85714285714285 40L 99.99999999999999 40" pathTo="M 0 40L 0 30C 2.4999999999999996 30 4.642857142857142 13.600000000000001 7.142857142857142 13.600000000000001C 9.642857142857142 13.600000000000001 11.785714285714285 23.6 14.285714285714285 23.6C 16.785714285714285 23.6 18.928571428571427 4.399999999999999 21.428571428571427 4.399999999999999C 23.928571428571427 4.399999999999999 26.07142857142857 14.8 28.57142857142857 14.8C 31.07142857142857 14.8 33.21428571428571 30 35.71428571428571 30C 38.21428571428571 30 40.357142857142854 22.4 42.857142857142854 22.4C 45.357142857142854 22.4 47.49999999999999 32 49.99999999999999 32C 52.49999999999999 32 54.64285714285714 25.6 57.14285714285714 25.6C 59.64285714285714 25.6 61.78571428571428 24 64.28571428571428 24C 66.78571428571428 24 68.92857142857142 18.4 71.42857142857142 18.4C 73.92857142857142 18.4 76.07142857142857 4.399999999999999 78.57142857142857 4.399999999999999C 81.07142857142857 4.399999999999999 83.21428571428571 14.8 85.71428571428571 14.8C 88.21428571428571 14.8 90.35714285714285 30 92.85714285714285 30C 95.35714285714285 30 97.49999999999999 8 99.99999999999999 8C 99.99999999999999 8 99.99999999999999 8 99.99999999999999 40M 99.99999999999999 8z"/><path d="M0 30c2.5 0 4.643-16.4 7.143-16.4s4.643 10 7.143 10 4.643-19.2 7.143-19.2 4.642 10.4 7.142 10.4c2.503 0 4.646 15.2 7.146 15.2s4.643-7.6 7.143-7.6 4.64 9.6 7.14 9.6 4.644-6.4 7.144-6.4 4.643-1.6 7.143-1.6 4.643-5.6 7.143-5.6 4.642-14 7.142-14 4.643 10.4 7.143 10.4S90.357 30 92.857 30 97.5 8 100 8" fill="none" stroke="#58bd7d" stroke-width="2" class="apexcharts-area" clip-path="url(#b)" index="0" pathFrom="M -1 40L -1 40L 7.142857142857142 40L 14.285714285714285 40L 21.428571428571427 40L 28.57142857142857 40L 35.71428571428571 40L 42.857142857142854 40L 49.99999999999999 40L 57.14285714285714 40L 64.28571428571428 40L 71.42857142857142 40L 78.57142857142857 40L 85.71428571428571 40L 92.85714285714285 40L 99.99999999999999 40" pathTo="M 0 30C 2.4999999999999996 30 4.642857142857142 13.600000000000001 7.142857142857142 13.600000000000001C 9.642857142857142 13.600000000000001 11.785714285714285 23.6 14.285714285714285 23.6C 16.785714285714285 23.6 18.928571428571427 4.399999999999999 21.428571428571427 4.399999999999999C 23.928571428571427 4.399999999999999 26.07142857142857 14.8 28.57142857142857 14.8C 31.07142857142857 14.8 33.21428571428571 30 35.71428571428571 30C 38.21428571428571 30 40.357142857142854 22.4 42.857142857142854 22.4C 45.357142857142854 22.4 47.49999999999999 32 49.99999999999999 32C 52.49999999999999 32 54.64285714285714 25.6 57.14285714285714 25.6C 59.64285714285714 25.6 61.78571428571428 24 64.28571428571428 24C 66.78571428571428 24 68.92857142857142 18.4 71.42857142857142 18.4C 73.92857142857142 18.4 76.07142857142857 4.399999999999999 78.57142857142857 4.399999999999999C 81.07142857142857 4.399999999999999 83.21428571428571 14.8 85.71428571428571 14.8C 88.21428571428571 14.8 90.35714285714285 30 92.85714285714285 30C 95.35714285714285 30 97.49999999999999 8 99.99999999999999 8"/></g></g></g></svg>