<svg width="100" height="100" viewBox="0 0 100 100" fill="none" xmlns="http://www.w3.org/2000/svg">
<g clip-path="url(#clip0_4_78)">
<path d="M85.3516 9H99.8047L69.7266 38.7812C58.834 49.5605 41.1738 49.5605 30.2734 38.7812L0.183594 9H14.6484L37.5 31.623C40.8295 34.9045 45.3165 36.744 49.9912 36.744C54.666 36.744 59.153 34.9045 62.4824 31.623L85.3516 9Z" fill="#23292F"/>
<path d="M14.4629 91.8125H0L30.2734 61.8477C41.166 51.0684 58.8262 51.0684 69.7266 61.8477L100 91.8125H85.5469L62.5 69.0059C59.1705 65.7244 54.6835 63.8849 50.0088 63.8849C45.334 63.8849 40.847 65.7244 37.5176 69.0059L14.4629 91.8125Z" fill="#23292F"/>
</g>
<defs>
<clipPath id="clip0_4_78">
<rect width="100" height="82.8125" fill="white" transform="translate(0 9)"/>
</clipPath>
</defs>
</svg>
