<svg width="100" height="100" viewBox="0 0 100 100" fill="none" xmlns="http://www.w3.org/2000/svg">
<g clip-path="url(#clip0_4_79)">
<path d="M27.4133 49.8667C27.2 53.5733 30.0533 56.7467 33.76 56.96C33.8933 56.96 34.0267 56.96 34.16 56.96C37.8933 56.96 40.9067 53.9467 40.88 50.2133C40.88 46.48 37.8667 43.4667 34.1333 43.4933C30.56 43.4933 27.6 46.2933 27.4133 49.8667Z" fill="#0033AD"/>
<path d="M2.29337 48.1332C1.09337 48.0532 0.0533728 48.9865 3.94564e-05 50.1865C-0.0532939 51.3865 0.853373 52.4265 2.05337 52.4799C3.25337 52.5599 4.26671 51.6265 4.34671 50.4265C4.42671 49.2265 3.49337 48.2132 2.29337 48.1332Z" fill="#0033AD"/>
<path d="M26.9867 10.7733C28.0533 10.24 28.48 8.90666 27.9467 7.84C27.4133 6.77333 26.08 6.34666 25.0133 6.88C23.9467 7.41333 23.52 8.72 24.0533 9.78666C24.5867 10.88 25.8933 11.3333 26.9867 10.7733C26.9867 10.7733 26.96 10.7733 26.9867 10.7733Z" fill="#0033AD"/>
<path d="M33.8134 22.6932C35.4667 21.8665 36.1334 19.8398 35.3067 18.1865C34.48 16.5332 32.4534 15.8665 30.8 16.6932C29.1467 17.5198 28.48 19.5465 29.3067 21.1998C30.1334 22.8532 32.16 23.5198 33.8134 22.6932Z" fill="#0033AD"/>
<path d="M10.8267 30.8799C12.1067 31.7066 13.8134 31.3599 14.6667 30.0799C15.4934 28.7999 15.1467 27.0932 13.8667 26.2399C12.5867 25.4132 10.88 25.7599 10.0267 27.0399C9.17338 28.3199 9.54671 30.0532 10.8267 30.8799Z" fill="#0033AD"/>
<path d="M14.9067 46.9334C13.04 46.8267 11.4667 48.2401 11.36 50.1067C11.2534 51.9734 12.6667 53.5467 14.5334 53.6534C16.4 53.7601 17.9734 52.3467 18.08 50.4801C18.1867 48.6401 16.7734 47.0401 14.9067 46.9334Z" fill="#0033AD"/>
<path d="M11.2 69.5202C9.84001 70.2136 9.28001 71.8669 9.97335 73.2536C10.6667 74.6136 12.32 75.1736 13.7067 74.4802C15.0667 73.7869 15.6267 72.1336 14.9333 70.7469C14.24 69.3869 12.56 68.8269 11.2 69.5202Z" fill="#0033AD"/>
<path d="M24.2667 39.9733C26.1067 41.1733 28.56 40.6667 29.7334 38.8267C30.9334 36.9867 30.4267 34.5333 28.5867 33.36C26.7467 32.16 24.2934 32.6667 23.12 34.5067C21.92 36.32 22.4267 38.7733 24.2667 39.9733Z" fill="#0033AD"/>
<path d="M65.7333 22.4268C67.28 23.4401 69.3867 23.0135 70.4 21.4668C71.4133 19.9201 70.9867 17.8135 69.44 16.8001C67.8933 15.7868 65.7867 16.2135 64.7733 17.7601C63.7333 19.3335 64.16 21.4135 65.7333 22.4268Z" fill="#0033AD"/>
<path d="M72.6134 10.56C73.6268 11.2266 74.9601 10.9333 75.6268 9.91998C76.2934 8.90664 76.0001 7.57331 74.9868 6.90664C73.9734 6.23998 72.6401 6.53331 71.9734 7.51998C71.3334 8.53331 71.6268 9.89331 72.6134 10.56Z" fill="#0033AD"/>
<path d="M66.2401 43.4399C62.5334 43.2266 59.3334 46.0799 59.1467 49.7866C58.9334 53.4933 61.7867 56.6933 65.4934 56.8799C65.6267 56.8799 65.7601 56.8799 65.8667 56.8799C69.5734 56.8799 72.5867 53.8666 72.5867 50.1333C72.6134 46.5866 69.8134 43.6266 66.2401 43.4399Z" fill="#0033AD"/>
<path d="M36.0267 39.4935C37.1733 41.7602 39.4933 43.2002 42.0533 43.2002C45.76 43.2002 48.7733 40.1868 48.7733 36.4535C48.7733 35.4135 48.5333 34.3735 48.0533 33.4135C46.3733 30.0802 42.32 28.7468 39.0133 30.4268C35.68 32.1335 34.3467 36.1868 36.0267 39.4935Z" fill="#0033AD"/>
<path d="M88.8 30.88C90.16 30.1867 90.6933 28.5067 90 27.1467C89.3067 25.7867 87.6267 25.2534 86.2667 25.9467C84.9067 26.64 84.3733 28.2934 85.04 29.6534C85.76 31.0134 87.4133 31.5734 88.8 30.88Z" fill="#0033AD"/>
<path d="M71.7334 33.0136C69.7867 34.0003 68.9867 36.3736 69.9734 38.3203C70.9601 40.2669 73.3334 41.0669 75.2801 40.0803C77.2267 39.0936 78.0267 36.7203 77.0401 34.7736C76.0534 32.8269 73.6801 32.0536 71.7334 33.0136Z" fill="#0033AD"/>
<path d="M49.7334 9.5467C51.2534 9.6267 52.5601 8.45337 52.6667 6.93337C52.7734 5.41337 51.5734 4.1067 50.0534 4.00004C48.5334 3.92004 47.2267 5.0667 47.1201 6.5867C47.0401 8.13337 48.2134 9.44004 49.7334 9.5467Z" fill="#0033AD"/>
<path d="M49.7067 26.9598C51.8934 27.0932 53.7601 25.4132 53.8667 23.2265C54.0001 21.0398 52.3201 19.1732 50.1334 19.0665C47.9467 18.9332 46.0801 20.6132 45.9734 22.7998C45.8667 24.9865 47.5201 26.8532 49.7067 26.9598Z" fill="#0033AD"/>
<path d="M28.2667 67.3869C30.2133 66.4002 31.0133 64.0269 30.0267 62.0802C29.04 60.1335 26.6667 59.3335 24.72 60.3202C22.7733 61.3069 21.9733 63.6802 22.96 65.6269C23.9467 67.5736 26.32 68.3735 28.2667 67.3869Z" fill="#0033AD"/>
<path d="M52.2667 32.7465C50.24 35.8665 51.0933 40.0265 54.2133 42.0532C57.3333 44.0799 61.4933 43.2265 63.52 40.1065C65.5467 36.9865 64.6933 32.8265 61.5733 30.7999C60.48 30.0799 59.2 29.7065 57.8933 29.7065C55.6267 29.7065 53.52 30.8532 52.2667 32.7465Z" fill="#0033AD"/>
<path d="M63.9734 60.9066C62.2934 57.5733 58.24 56.24 54.9334 57.92C51.6 59.6 50.2667 63.6533 51.9467 66.96C53.6267 70.2933 57.68 71.6267 60.9867 69.9467C64.2934 68.2933 65.6534 64.2933 64 60.96C64 60.9333 64 60.9333 63.9734 60.9066Z" fill="#0033AD"/>
<path d="M75.7334 60.4269C73.8934 59.2269 71.4401 59.7336 70.2667 61.5736C69.0667 63.4136 69.5734 65.8669 71.4134 67.0402C73.2534 68.2402 75.7067 67.7336 76.8801 65.8936C78.0801 64.0802 77.5734 61.6269 75.7334 60.4269Z" fill="#0033AD"/>
<path d="M88.6401 50.3199C88.7468 48.4532 87.3334 46.8799 85.4668 46.7732C83.6001 46.6666 82.0268 48.0799 81.9201 49.9466C81.8134 51.8132 83.2268 53.3866 85.0934 53.4932C86.9334 53.5999 88.5334 52.1599 88.6401 50.3199Z" fill="#0033AD"/>
<path d="M97.9467 47.9198C96.7467 47.8398 95.7067 48.7732 95.6534 49.9732C95.6 51.1732 96.5067 52.2132 97.7067 52.2665C98.9067 52.3465 99.92 51.4132 100 50.2132C100.053 49.0132 99.1467 47.9998 97.9467 47.9198Z" fill="#0033AD"/>
<path d="M89.1734 69.5202C87.8934 68.6935 86.1868 69.0402 85.3334 70.3202C84.5068 71.6002 84.8534 73.3069 86.1334 74.1602C87.4134 74.9869 89.1201 74.6402 89.9734 73.3602C90.8268 72.0802 90.4534 70.3469 89.1734 69.5202Z" fill="#0033AD"/>
<path d="M27.36 89.8402C26.3467 89.1736 25.0134 89.4669 24.3467 90.4536C23.68 91.4669 23.9734 92.8002 24.96 93.4669C25.9734 94.1336 27.3067 93.8402 27.9734 92.8536C28.6667 91.8669 28.3734 90.5069 27.36 89.8402Z" fill="#0033AD"/>
<path d="M73.0133 89.6269C71.9467 90.1602 71.52 91.4936 72.0533 92.5602C72.5867 93.6269 73.92 94.0536 74.9867 93.5202C76.0533 92.9869 76.48 91.6802 75.9467 90.6135C75.4133 89.5202 74.1067 89.0669 73.0133 89.6269C73.0133 89.6269 73.04 89.6269 73.0133 89.6269Z" fill="#0033AD"/>
<path d="M47.7334 67.6535C49.76 64.5335 48.9067 60.3735 45.7867 58.3201C42.6667 56.2935 38.5067 57.1468 36.4534 60.2668C34.4 63.3868 35.28 67.5468 38.4 69.6001C39.4934 70.3201 40.7734 70.6935 42.08 70.6935C44.3734 70.7201 46.48 69.5735 47.7334 67.6535Z" fill="#0033AD"/>
<path d="M34.2667 77.9735C32.7201 76.9601 30.6134 77.3868 29.6001 78.9335C28.5867 80.4801 29.0134 82.5868 30.5601 83.6001C32.1067 84.6135 34.2134 84.1868 35.2267 82.6401C36.2667 81.0935 35.8401 78.9868 34.2667 77.9735Z" fill="#0033AD"/>
<path d="M49.9734 90.8535C48.4534 90.7735 47.1467 91.9468 47.04 93.4668C46.9334 94.9868 48.1334 96.2935 49.6534 96.4001C51.1734 96.4801 52.48 95.3335 52.5867 93.8135C52.6667 92.2668 51.4934 90.9601 49.9734 90.8535Z" fill="#0033AD"/>
<path d="M50.0001 73.44C47.8134 73.3067 45.9467 74.9867 45.8401 77.1734C45.7067 79.36 47.3867 81.2267 49.5734 81.3334C51.7601 81.44 53.6267 79.7867 53.7334 77.6C53.8667 75.44 52.1867 73.5467 50.0001 73.44Z" fill="#0033AD"/>
<path d="M66.1868 77.7068C64.5334 78.5602 63.8668 80.5868 64.7201 82.2402C65.5734 83.8935 67.6001 84.5602 69.2534 83.7068C70.9068 82.8802 71.5734 80.8535 70.7467 79.2002C69.8934 77.5468 67.8668 76.8535 66.1868 77.7068Z" fill="#0033AD"/>
</g>
<defs>
<clipPath id="clip0_4_79">
<rect width="100" height="92.4" fill="white" transform="translate(0 4)"/>
</clipPath>
</defs>
</svg>
