<svg width="100" height="100" viewBox="0 0 100 100" fill="none" xmlns="http://www.w3.org/2000/svg">
<path fill-rule="evenodd" clip-rule="evenodd" d="M18.3101 7.42707L0.0770596 45.7271C0.00791473 45.8696 -0.0138546 46.0305 0.0149298 46.1863C0.0437141 46.3421 0.121545 46.4846 0.23706 46.5931L49.4801 93.7801C49.6199 93.9143 49.8062 93.9892 50.0001 93.9892C50.1939 93.9892 50.3802 93.9143 50.5201 93.7801L99.7641 46.5951C99.8796 46.4866 99.9574 46.3441 99.9862 46.1883C100.015 46.0325 99.9932 45.8716 99.9241 45.7291L81.6901 7.43007C81.6312 7.30138 81.5366 7.19238 81.4174 7.11612C81.2982 7.03985 81.1596 6.99956 81.0181 7.00007H18.9881C18.8459 6.99814 18.7062 7.03744 18.5859 7.11322C18.4655 7.189 18.3697 7.29801 18.3101 7.42707Z" fill="#50AF95"/>
<path fill-rule="evenodd" clip-rule="evenodd" d="M56.3271 49.6601C55.9731 49.6861 54.1471 49.795 50.0721 49.795C46.8321 49.795 44.5311 49.6981 43.7221 49.6601C31.1991 49.1091 21.8511 46.9291 21.8511 44.3191C21.8511 41.7091 31.1991 39.5311 43.7231 38.9711V47.489C44.5431 47.548 46.8871 47.6861 50.1281 47.6861C54.0181 47.6861 55.9641 47.5241 56.3151 47.4921V38.9771C68.8121 39.5341 78.1401 41.7141 78.1401 44.3191C78.1401 46.9231 68.8151 49.1031 56.3151 49.6571L56.3271 49.6601ZM56.3271 38.0961V30.4751H73.7671V18.8521H26.2831V30.4751H43.7201V38.0931C29.5471 38.7441 18.8881 41.5531 18.8881 44.9171C18.8881 48.2811 29.5471 51.0861 43.7201 51.7401V76.1631H56.3241V51.73C70.4651 51.081 81.1071 48.2761 81.1071 44.9151C81.1071 41.5531 70.4741 38.7481 56.3241 38.0951L56.3271 38.0971V38.0961Z" fill="white"/>
</svg>
