<svg width="100" height="100" viewBox="0 0 100 100" fill="none" xmlns="http://www.w3.org/2000/svg">
<g clip-path="url(#clip0_4_27)">
<path d="M98.498 62.0948C91.821 88.8808 64.691 105.183 37.902 98.5028C11.124 91.8248 -5.17798 64.6928 1.50302 37.9098C8.17803 11.1198 35.308 -5.18223 62.09 1.49577C88.877 8.17377 105.177 35.3088 98.499 62.0958L98.498 62.0948Z" fill="#F7931A"/>
<path d="M72.048 42.8759C73.043 36.2219 67.978 32.6459 61.05 30.2599L63.297 21.2459L57.811 19.8789L55.623 28.6549C54.181 28.2949 52.699 27.9549 51.227 27.6199L53.431 18.7859L47.947 17.4189L45.699 26.4289C44.527 26.165 43.3576 25.8893 42.191 25.6019L42.198 25.5739L34.632 23.6839L33.172 29.5439C33.172 29.5439 37.242 30.4779 37.157 30.5339C39.379 31.0899 39.78 32.5599 39.714 33.7259L37.154 43.9939C37.307 44.0339 37.505 44.0899 37.724 44.1779C37.541 44.1319 37.346 44.0819 37.144 44.0339L33.56 58.4219C33.289 59.0969 32.6 60.1099 31.046 59.7259C31.101 59.8059 27.058 58.7309 27.058 58.7309L24.334 65.0109L31.474 66.7909C32.804 67.1239 34.104 67.4729 35.386 67.8009L33.116 76.9169L38.596 78.2839L40.846 69.2639C42.342 69.6709 43.796 70.0459 45.217 70.3989L42.977 79.3759L48.463 80.7429L50.733 71.6429C60.089 73.4149 67.124 72.7009 70.085 64.2379C72.471 57.4249 69.967 53.4949 65.045 50.9319C68.629 50.1059 71.33 47.7479 72.05 42.8769H72.048V42.8759ZM59.512 60.4549C57.816 67.2679 46.345 63.5849 42.626 62.6609L45.639 50.5829C49.358 51.5119 61.284 53.3489 59.512 60.4549ZM61.209 42.7769C59.662 48.9749 50.114 45.8269 47.017 45.0539L49.749 34.0999C52.846 34.8719 62.82 36.3129 61.209 42.7769Z" fill="white"/>
</g>
<defs>
<clipPath id="clip0_4_27">
<rect width="100" height="100" fill="white"/>
</clipPath>
</defs>
</svg>
