<svg width="100" height="100" viewBox="0 0 100 100" fill="none" xmlns="http://www.w3.org/2000/svg">
<g clip-path="url(#clip0_4_80)">
<path d="M80.8383 17.1655H19.0951V73.3199H80.8383V17.1655Z" fill="white"/>
<path fill-rule="evenodd" clip-rule="evenodd" d="M99.9668 50.0331C99.9668 77.6293 77.5962 99.9999 50.0001 99.9999C22.4042 99.9999 0.0333252 77.6293 0.0333252 50.0331C0.0333252 22.4373 22.4042 0.0664062 50.0001 0.0664062C77.5962 0.0664062 99.9668 22.4373 99.9668 50.0331ZM35.8409 69.9174H26.1438C24.1061 69.9174 23.0996 69.9174 22.4859 69.5248C21.823 69.095 21.418 68.3831 21.3689 67.5973C21.332 66.8735 21.8353 65.9894 22.8418 64.2218L46.7853 22.0182C47.8041 20.226 48.3196 19.3299 48.9702 18.9985C49.6698 18.6426 50.5046 18.6426 51.2042 18.9985C51.8548 19.3299 52.3704 20.226 53.3891 22.0182L58.3114 30.6106L58.3365 30.6544C59.4369 32.5771 59.9949 33.552 60.2386 34.5753C60.5086 35.6924 60.5086 36.8707 60.2386 37.9878C59.9931 39.0188 59.4407 40.0009 58.3237 41.9526L45.7468 64.185L45.7142 64.2419C44.6066 66.1804 44.0452 67.1629 43.2673 67.9041C42.4203 68.7144 41.4015 69.3033 40.2844 69.6353C39.2656 69.9174 38.1241 69.9174 35.8409 69.9174ZM60.3294 69.9174H74.2243C76.2742 69.9174 77.3054 69.9174 77.9195 69.5129C78.5822 69.083 78.9994 68.3585 79.0366 67.5734C79.0719 66.8728 78.5796 66.0232 77.6148 64.3583C77.5816 64.3016 77.5483 64.2439 77.5144 64.1852L70.5543 52.2787L70.4751 52.1446C69.4971 50.4907 69.0034 49.6555 68.3693 49.3327C67.67 48.9767 66.847 48.9767 66.1477 49.3327C65.5094 49.6641 64.9939 50.5356 63.975 52.2909L57.0397 64.1975L57.016 64.2385C56.0007 65.991 55.4933 66.8668 55.5299 67.5854C55.579 68.3711 55.9841 69.095 56.6469 69.5248C57.2484 69.9174 58.2795 69.9174 60.3294 69.9174Z" fill="#E84142"/>
</g>
<defs>
<clipPath id="clip0_4_80">
<rect width="100" height="100" fill="white"/>
</clipPath>
</defs>
</svg>
