<svg width="60" height="60" viewBox="0 0 60 60" fill="none" xmlns="http://www.w3.org/2000/svg">
<g id="Social">
<g id="Background" filter="url(#filter0_d_1_43)">
<path fill-rule="evenodd" clip-rule="evenodd" d="M30 48C41.0457 48 50 39.0457 50 28C50 16.9543 41.0457 8 30 8C18.9543 8 10 16.9543 10 28C10 39.0457 18.9543 48 30 48Z" fill="white"/>
</g>
<path id="Facebook Icon" fill-rule="evenodd" clip-rule="evenodd" d="M33.5371 23.2445C33.217 23.1432 32.8489 23.0757 32.5129 23.0757C32.0968 23.0757 31.2006 23.3626 31.2006 23.9195V25.2527H33.329V27.4971H31.2006V33.6905H29.0562V27.4971H28V25.2527H29.0562V24.122C29.0562 22.4176 29.7923 21 31.5687 21C32.1768 21 33.265 21.0338 33.8571 21.2531L33.5371 23.2445Z" fill="#080809"/>
</g>
<defs>
<filter id="filter0_d_1_43" x="0" y="0" width="60" height="60" filterUnits="userSpaceOnUse" color-interpolation-filters="sRGB">
<feFlood flood-opacity="0" result="BackgroundImageFix"/>
<feColorMatrix in="SourceAlpha" type="matrix" values="0 0 0 0 0 0 0 0 0 0 0 0 0 0 0 0 0 0 127 0" result="hardAlpha"/>
<feOffset dy="2"/>
<feGaussianBlur stdDeviation="5"/>
<feColorMatrix type="matrix" values="0 0 0 0 0 0 0 0 0 0 0 0 0 0 0 0 0 0 0.1 0"/>
<feBlend mode="normal" in2="BackgroundImageFix" result="effect1_dropShadow_1_43"/>
<feBlend mode="normal" in="SourceGraphic" in2="effect1_dropShadow_1_43" result="shape"/>
</filter>
</defs>
</svg>
