<svg width="20" height="20" viewBox="0 0 20 20" fill="none" xmlns="http://www.w3.org/2000/svg">
<g id="google-play 1" clip-path="url(#clip0_1_60)">
<path id="Vector" d="M11.5074 10.0018L1.46387 19.673C0.993544 19.3516 0.714304 18.817 0.719242 18.2473V1.75626C0.714304 1.18663 0.993544 0.65199 1.46387 0.330566L11.5074 10.0018Z" fill="#2196F3"/>
<path id="Vector_2" d="M15.0217 6.62364L11.5074 10.0018L1.46387 0.330532C1.50171 0.301203 1.54113 0.273918 1.58191 0.248803C2.11272 -0.0729183 2.77574 -0.0833047 3.31639 0.22156L15.0217 6.62364Z" fill="#4CAF50"/>
<path id="Vector_3" d="M19.2807 10.0017C19.2873 10.6447 18.9379 11.2387 18.3727 11.5454L15.0218 13.3798L11.5074 10.0017L15.0218 6.62354L18.3727 8.45788C18.9379 8.76462 19.2873 9.3586 19.2807 10.0017Z" fill="#F0BB1F"/>
<path id="Vector_4" d="M15.0217 13.3798L3.31639 19.7819C2.77455 20.0821 2.11404 20.0717 1.58191 19.7547C1.54113 19.7296 1.50171 19.7023 1.46387 19.6729L11.5074 10.0017L15.0217 13.3798Z" fill="#F15A2B"/>
</g>
<defs>
<clipPath id="clip0_1_60">
<rect width="20" height="20" fill="white"/>
</clipPath>
</defs>
</svg>
