<svg width="12" height="12" viewBox="0 0 12 12" fill="none" xmlns="http://www.w3.org/2000/svg">
<g id="instagram 1" clip-path="url(#clip0_1_48)">
<g id="Group">
<g id="Group_2">
<path id="Vector" d="M10.2422 0H1.75781C0.788672 0 0 0.788672 0 1.75781V10.2422C0 11.2116 0.788672 12 1.75781 12H10.2422C11.2116 12 12 11.2116 12 10.2422V1.75781C12 0.788672 11.2116 0 10.2422 0ZM11.2969 10.2422C11.2969 10.8237 10.8237 11.2969 10.2422 11.2969H1.75781C1.17633 11.2969 0.703125 10.8237 0.703125 10.2422V1.75781C0.703125 1.17633 1.17633 0.703125 1.75781 0.703125H10.2422C10.8237 0.703125 11.2969 1.17633 11.2969 1.75781V10.2422Z" fill="#080809"/>
</g>
<g id="Group_3">
<path id="Vector_2" d="M9.86719 1.42969C9.47953 1.42969 9.16406 1.74516 9.16406 2.13281C9.16406 2.52047 9.47953 2.83594 9.86719 2.83594C10.2548 2.83594 10.5703 2.52047 10.5703 2.13281C10.5703 1.74516 10.2548 1.42969 9.86719 1.42969Z" fill="#080809"/>
</g>
<g id="Group_4">
<path id="Vector_3" d="M6 2.83594C4.25531 2.83594 2.83594 4.25531 2.83594 6C2.83594 7.74469 4.25531 9.16406 6 9.16406C7.74469 9.16406 9.16406 7.74469 9.16406 6C9.16406 4.25531 7.74469 2.83594 6 2.83594ZM6 8.46094C4.64297 8.46094 3.53906 7.35703 3.53906 6C3.53906 4.64297 4.64297 3.53906 6 3.53906C7.35703 3.53906 8.46094 4.64297 8.46094 6C8.46094 7.35703 7.35703 8.46094 6 8.46094Z" fill="#080809"/>
</g>
</g>
</g>
<defs>
<clipPath id="clip0_1_48">
<rect width="12" height="12" fill="white"/>
</clipPath>
</defs>
</svg>
