<svg width="60" height="60" viewBox="0 0 60 60" fill="none" xmlns="http://www.w3.org/2000/svg">
<g id="Social">
<g id="Background" filter="url(#filter0_d_1_40)">
<path fill-rule="evenodd" clip-rule="evenodd" d="M30 48C41.0457 48 50 39.0457 50 28C50 16.9543 41.0457 8 30 8C18.9543 8 10 16.9543 10 28C10 39.0457 18.9543 48 30 48Z" fill="white"/>
</g>
<path id="Vector" d="M37 24.3022C36.4794 24.5231 35.9246 24.6695 35.3462 24.7405C35.9412 24.397 36.3954 23.8572 36.6089 23.2065C36.0541 23.5263 35.4416 23.7522 34.7889 23.8783C34.2621 23.3359 33.5114 23 32.6924 23C31.1034 23 29.8241 24.2472 29.8241 25.7762C29.8241 25.9962 29.8434 26.2078 29.8906 26.4092C27.5045 26.2966 25.3931 25.1907 23.9747 23.506C23.7271 23.9215 23.5819 24.397 23.5819 24.9089C23.5819 25.8702 24.0938 26.7222 24.8568 27.2155C24.3956 27.2071 23.9433 27.0776 23.56 26.8737C23.56 26.8822 23.56 26.8932 23.56 26.9042C23.56 28.2529 24.5549 29.3732 25.8595 29.6313C25.6259 29.6931 25.3712 29.7227 25.107 29.7227C24.9232 29.7227 24.7377 29.7125 24.5636 29.6753C24.9355 30.7745 25.9908 31.5825 27.2455 31.6088C26.269 32.3475 25.0291 32.7925 23.6869 32.7925C23.4515 32.7925 23.2257 32.7824 23 32.7545C24.2714 33.5473 25.7781 34 27.403 34C32.6845 34 35.572 29.7692 35.572 26.102C35.572 25.9793 35.5676 25.8608 35.5615 25.7432C36.1311 25.3523 36.6097 24.8641 37 24.3022Z" fill="#080809"/>
</g>
<defs>
<filter id="filter0_d_1_40" x="0" y="0" width="60" height="60" filterUnits="userSpaceOnUse" color-interpolation-filters="sRGB">
<feFlood flood-opacity="0" result="BackgroundImageFix"/>
<feColorMatrix in="SourceAlpha" type="matrix" values="0 0 0 0 0 0 0 0 0 0 0 0 0 0 0 0 0 0 127 0" result="hardAlpha"/>
<feOffset dy="2"/>
<feGaussianBlur stdDeviation="5"/>
<feColorMatrix type="matrix" values="0 0 0 0 0 0 0 0 0 0 0 0 0 0 0 0 0 0 0.1 0"/>
<feBlend mode="normal" in2="BackgroundImageFix" result="effect1_dropShadow_1_40"/>
<feBlend mode="normal" in="SourceGraphic" in2="effect1_dropShadow_1_40" result="shape"/>
</filter>
</defs>
</svg>
