<svg xmlns="http://www.w3.org/2000/svg" width="216.576" height="588.22" viewBox="0 0 216.576 588.22">
  <g id="Group_1953" data-name="Group 1953" transform="translate(-51.354 -234.072)">
    <circle id="Ellipse_130" data-name="Ellipse 130" cx="47.795" cy="47.795" r="47.795" transform="matrix(0.921, 0.391, -0.391, 0.921, 179.939, 234.072)" fill="#175fe5"/>
    <g id="Rectangle_561" data-name="Rectangle 561" transform="translate(84.281 777.096) rotate(-40)" fill="#fff" stroke="#707070" stroke-width="1">
      <rect width="59" height="59" rx="6" stroke="none"/>
      <rect x="0.5" y="0.5" width="58" height="58" rx="5.5" fill="none"/>
    </g>
    <g id="Polygon_3" data-name="Polygon 3" transform="matrix(0.485, -0.875, 0.875, 0.485, 51.354, 702.532)" fill="none">
      <path d="M46.662,7.571a5,5,0,0,1,8.676,0L97.71,81.514A5,5,0,0,1,93.372,89H8.628A5,5,0,0,1,4.29,81.514Z" stroke="none"/>
      <path d="M 51 10.05656433105469 L 8.627914428710938 84 L 93.37208557128906 84.00001525878906 L 51 10.05656433105469 M 50.99999237060547 5.056549072265625 C 52.68888854980469 5.056549072265625 54.37778472900391 5.894569396972656 55.33821487426758 7.57061767578125 L 97.71029663085938 81.51406860351563 C 99.62039947509766 84.84736633300781 97.21388244628906 89 93.37208557128906 89 L 8.627914428710938 89 C 4.786102294921875 89 2.379600524902344 84.84736633300781 4.289703369140625 81.51406860351563 L 46.66178512573242 7.57061767578125 C 47.62220764160156 5.894569396972656 49.31110000610352 5.056549072265625 50.99999237060547 5.056549072265625 Z" stroke="none" fill="#ff4d00"/>
    </g>
  </g>
</svg>
