<svg xmlns="http://www.w3.org/2000/svg" width="317" height="317" viewBox="0 0 317 317">
  <g id="Group_1956" data-name="Group 1956" transform="translate(-12299 -1348)">
    <g id="Ellipse_133" data-name="Ellipse 133" transform="translate(12299 1348)" fill="none" stroke="#ededed" stroke-width="1">
      <circle cx="158.5" cy="158.5" r="158.5" stroke="none"/>
      <circle cx="158.5" cy="158.5" r="158" fill="none"/>
    </g>
    <g id="Intersection_2" data-name="Intersection 2" transform="translate(12220.836 1348.36)" fill="#e53617">
      <path d="M 236.6640167236328 306.139892578125 C 226.6220855712891 306.139892578125 216.5865783691406 305.1282653808594 206.8362884521484 303.1330261230469 C 197.3340759277344 301.1885986328125 187.9873962402344 298.2872619628906 179.0558624267578 294.5095520019531 C 170.2863616943359 290.8003540039063 161.8281555175781 286.2093505859375 153.9161529541016 280.8641052246094 C 146.0791473388672 275.569580078125 138.7096099853516 269.4891357421875 132.0121917724609 262.7917175292969 C 125.3147583007813 256.0942993164063 119.2343292236328 248.7247467041016 113.9397964477539 240.8877563476563 C 108.5945434570313 232.9757537841797 104.003547668457 224.5175323486328 100.2943649291992 215.748046875 C 96.51665496826172 206.8164978027344 93.61529541015625 197.4698181152344 91.67086791992188 187.9676055908203 C 89.67565155029297 178.2173309326172 88.66400909423828 168.1818237304688 88.66400909423828 158.139892578125 C 88.66400909423828 142.9157104492188 90.96643829345703 127.905143737793 95.50736999511719 113.5252151489258 C 99.90154266357422 99.61007690429688 106.3383636474609 86.43564605712891 114.639045715332 74.36793518066406 C 122.8280792236328 62.46257400512695 132.6937561035156 51.82939529418945 143.9621124267578 42.76375198364258 C 155.2162017822266 33.70953750610352 167.6761322021484 26.37632179260254 181.0024566650391 20.96333503723145 L 342.97802734375 261.102783203125 C 336.3215942382813 267.97412109375 328.9735412597656 274.2244262695313 321.133056640625 279.6835632324219 C 313.109619140625 285.2701416015625 304.5075073242188 290.0717468261719 295.5657348632813 293.9551086425781 C 286.4585571289063 297.9102478027344 276.9137878417969 300.9490356445313 267.1966857910156 302.9869995117188 C 257.2214965820313 305.0791015625 246.9488372802734 306.139892578125 236.6640167236328 306.139892578125 Z" stroke="none"/>
      <path d="M 180.8151245117188 21.5797119140625 C 167.6752624511719 26.95925903320313 155.3858947753906 34.2147216796875 144.2755126953125 43.1533203125 C 133.0450439453125 52.18850708007813 123.2125244140625 62.78598022460938 115.0509948730469 74.65132141113281 C 106.7784423828125 86.67817687988281 100.3634033203125 99.80789184570313 95.98419189453125 113.6757965087891 C 91.45864868164063 128.0069732666016 89.16400146484375 142.9668579101563 89.16400146484375 158.139892578125 C 89.16400146484375 168.1482543945313 90.17227172851563 178.1500091552734 92.16067504882813 187.8673553466797 C 94.0985107421875 197.3372497558594 96.99002075195313 206.652099609375 100.7548522949219 215.5532531738281 C 104.4514770507813 224.2930297851563 109.0269470214844 232.7226104736328 114.3541259765625 240.6078643798828 C 119.6308288574219 248.41845703125 125.6908264160156 255.7632141113281 132.3657531738281 262.4381408691406 C 139.0406799316406 269.1130676269531 146.3854675292969 275.1730651855469 154.196044921875 280.4498291015625 C 162.081298828125 285.7770080566406 170.5108947753906 290.3524169921875 179.2506561279297 294.0490417480469 C 188.1517944335938 297.8139038085938 197.4666900634766 300.7053833007813 206.9365386962891 302.6432189941406 C 216.6539001464844 304.6316833496094 226.6556549072266 305.639892578125 236.6640167236328 305.639892578125 C 246.9143981933594 305.639892578125 257.152587890625 304.5826721191406 267.0940551757813 302.4976501464844 C 276.7781372070313 300.4666137695313 286.2903747558594 297.4381713867188 295.3665466308594 293.4964599609375 C 304.2780456542969 289.6262817382813 312.8510131835938 284.8408813476563 320.8473510742188 279.2732238769531 C 328.5506896972656 273.9095458984375 335.7771911621094 267.7795104980469 342.33642578125 261.0456237792969 L 180.8151245117188 21.5797119140625 M 181.1904754638672 20.347900390625 L 343.6190185546875 261.1588745117188 C 316.6063842773438 289.1970825195313 278.6723022460938 306.639892578125 236.6640167236328 306.639892578125 C 154.6497192382813 306.639892578125 88.16400146484375 240.1542205810547 88.16400146484375 158.139892578125 C 88.16400146484375 95.73814392089844 126.6567687988281 42.3248291015625 181.1904754638672 20.347900390625 Z" stroke="none" fill="#707070"/>
    </g>
  </g>
</svg>
