<svg width="86" height="71" xmlns="http://www.w3.org/2000/svg"><g stroke="#62E0D9" stroke-width="1.3" fill="none" fill-rule="evenodd" stroke-linejoin="round"><path d="M33.897 11.338v2.027-2.027zm0 40.551v2.028-2.028zm20.31-18.248h-2.031 2.031zm-40.62 0h-2.032 2.031zm19.294 8.11c-.78 0-1.56-.296-2.153-.89l-13.08-13.057 4.308-4.3L32.881 34.41 60.176 7.16l4.31 4.3-29.45 29.4a3.04 3.04 0 0 1-2.155.89zm23.154-30.417C50.283 5.104 42.039 1.2 32.88 1.2 15.495 1.2 1.4 15.271 1.4 32.627s14.095 31.428 31.481 31.428c17.386 0 31.481-14.072 31.481-31.428 0-6.018-1.694-11.64-4.63-16.417l-3.697-4.876zM51.7 15.616a25.346 25.346 0 0 0-18.82-8.333c-14.022 0-25.388 11.346-25.388 25.344 0 13.999 11.366 25.345 25.388 25.345 14.022 0 25.388-11.346 25.388-25.345 0-4.329-1.087-8.402-3.002-11.966l-3.566-5.045z" stroke-linecap="round"/><path d="M55.368 40.484c0 2.48-2.015 4.49-4.498 4.49a4.494 4.494 0 0 1-4.497-4.49c0-2.48 2.015-4.49 4.497-4.49a4.494 4.494 0 0 1 4.498 4.49z"/><path d="M50.87 44.974c-1.898 0-3.612.583-4.839 1.154a3.34 3.34 0 0 0-1.907 3.033v7.037a2.248 2.248 0 0 0 2.249 2.245v8.979a2.247 2.247 0 0 0 2.249 2.245h4.497a2.247 2.247 0 0 0 2.249-2.245v-8.98a2.248 2.248 0 0 0 2.248-2.244V49.16a3.34 3.34 0 0 0-1.907-3.033c-1.226-.57-2.94-1.154-4.839-1.154z" stroke-linecap="round"/><path d="M68.86 40.484c0 2.48-2.014 4.49-4.498 4.49a4.493 4.493 0 0 1-4.497-4.49c0-2.48 2.014-4.49 4.497-4.49a4.493 4.493 0 0 1 4.497 4.49z"/><path d="M64.362 44.974c-1.898 0-3.612.583-4.839 1.154a3.34 3.34 0 0 0-1.907 3.033v7.037a2.247 2.247 0 0 0 2.249 2.245v8.979a2.248 2.248 0 0 0 2.249 2.245h4.497a2.247 2.247 0 0 0 2.248-2.245v-8.98a2.247 2.247 0 0 0 2.25-2.244V49.16a3.34 3.34 0 0 0-1.908-3.033c-1.226-.57-2.941-1.154-4.839-1.154z" stroke-linecap="round"/><path d="M82.351 40.484c0 2.48-2.013 4.49-4.497 4.49a4.493 4.493 0 0 1-4.497-4.49c0-2.48 2.013-4.49 4.497-4.49a4.493 4.493 0 0 1 4.497 4.49z"/><path d="M77.854 44.974c-1.898 0-3.612.583-4.839 1.154a3.34 3.34 0 0 0-1.907 3.033v7.037a2.247 2.247 0 0 0 2.249 2.245v8.979a2.248 2.248 0 0 0 2.248 2.245h4.498a2.247 2.247 0 0 0 2.248-2.245v-8.98a2.247 2.247 0 0 0 2.249-2.244V49.16a3.34 3.34 0 0 0-1.907-3.033c-1.226-.57-2.941-1.154-4.839-1.154z" stroke-linecap="round"/></g></svg>