<svg width="70" height="88" xmlns="http://www.w3.org/2000/svg"><g stroke="#62E0D9" stroke-width="3.064" fill="none" fill-rule="evenodd"><path d="M43.703 35.501l-12.23 12.474-8.999-9.177-4.499 4.589 13.497 13.766L52.08 36.137l-4.5-4.589z"/><path d="M56.916 9.85c-5.342 0-10.653-1.136-15.482-3.484-2.313-1.113-4.679-2.533-6.724-4.302-2.045 1.769-4.411 3.189-6.725 4.302C23.157 8.714 17.847 9.85 12.504 9.85H1.914v40.59c0 7.11 2.817 13.945 7.827 18.893 7.356 7.25 24.97 16.674 24.97 16.674s17.612-9.424 24.968-16.674c5.01-4.948 7.827-11.784 7.827-18.893V9.85h-10.59z"/><path d="M58.94 24.532v26.249c0 4.742-1.903 9.34-5.219 12.615-4.612 4.547-15.127 10.77-19.01 13-3.886-2.233-14.41-8.463-19.017-13.004-3.314-3.272-5.214-7.869-5.214-12.611V18.927h2.024c6.707 0 13.334-1.499 19.167-4.333a44.31 44.31 0 0 0 3.04-1.61c.972.565 2 1.11 3.064 1.623 5.814 2.826 12.434 4.32 19.141 4.32h2.024v5.605z"/></g></svg>