<svg width="91" height="64" xmlns="http://www.w3.org/2000/svg"><g fill="none" fill-rule="evenodd"><path d="M85.588 59C88.025 59 90 57.144 90 54.853V9.236c0-1.526-1.318-2.764-2.941-2.764L85.589 59zM15 12.048v40.047C15 55.908 18.098 59 21.92 59h63.668a4.147 4.147 0 0 1-4.152-4.143V3.762A2.766 2.766 0 0 0 78.668 1h-16.61l-5.536 8.286H17.768A2.766 2.766 0 0 0 15 12.048z" stroke="#62E0D9" stroke-width="1.405" stroke-linecap="round" stroke-linejoin="round"/><path d="M41.28 27.561v3.201c0 1.061.841 1.92 1.88 1.92h3.13m2.505 0v-.219c0-.679-.264-1.33-.734-1.811l-4.794-4.902a2.48 2.48 0 0 0-1.772-.75h-13.99C26.12 25 25 26.147 25 27.561v26.89c0 1.414 1.121 2.56 2.505 2.56H46.29c1.383 0 2.505-1.146 2.505-2.56v-8.963" fill="#62E0D9"/><path d="M33.766 49.33v3.84h3.757l11.898-12.164-3.757-3.841-11.898 12.164zm15.655-8.324l1.328-1.358a1.951 1.951 0 0 0 0-2.717l-1.1-1.124a1.85 1.85 0 0 0-2.657 0l-1.328 1.358 3.757 3.841z" stroke="#FFF" stroke-width=".803" stroke-linejoin="round"/><path d="M30.01 37.805h12.523m-12.524 3.841h11.272m-11.272 3.842h7.514" stroke="#FFF" stroke-width=".803" stroke-linecap="round" stroke-linejoin="round"/><g><path d="M32.367 59.432c0 1.972-1.61 3.572-3.596 3.572H3.596c-1.985 0-3.596-1.6-3.596-3.572v-17.86C0 39.6 1.61 38 3.596 38h25.175c1.985 0 3.596 1.6 3.596 3.572v17.86zM10.789 44.55a2.987 2.987 0 0 1-2.997 2.976 2.987 2.987 0 0 1-2.997-2.976 2.987 2.987 0 0 1 2.997-2.977 2.987 2.987 0 0 1 2.997 2.977z" fill="#62E0D9"/><path stroke="#FFF" stroke-width=".65" stroke-linecap="round" stroke-linejoin="round" d="M26.786 58.656L19.737 51.2 16.8 54.307l-4.112-4.349-8.224 8.698"/></g></g></svg>