<svg width="179" height="179" viewBox="0 0 179 179" fill="none" xmlns="http://www.w3.org/2000/svg">
<g filter="url(#filter0_d_0_887)">
<path d="M132.475 82.6796C132.842 98.3755 124.885 121.84 104.578 131.41C99.4744 133.815 96.6382 131.481 90.4829 131.778C84.9831 132.043 83.2841 133.983 78.046 132.107C56.2943 124.319 46.6361 101.507 46.2433 84.6943C45.7297 62.7137 63.7098 51.1019 88.9331 65.4456C111.82 50.8075 131.962 60.699 132.475 82.6796Z" fill="#FF542F"/>
<path fill-rule="evenodd" clip-rule="evenodd" d="M88.8272 61.1369C76.3496 54.5761 64.9058 53.7204 56.247 58.1248C47.0443 62.8058 42.2356 72.783 42.516 84.7817C42.9311 102.547 53.0995 127.136 76.7899 135.618C80.0633 136.79 82.4398 136.8 84.7582 136.428C85.5544 136.3 86.2044 136.165 86.8158 136.039C87.9878 135.796 89.0179 135.582 90.6633 135.503C92.619 135.409 94.0273 135.611 95.6281 135.84C96.2129 135.924 96.8234 136.011 97.4957 136.089C100.036 136.384 102.782 136.379 106.169 134.783C128.271 124.368 136.592 99.1764 136.204 82.5928C135.92 70.4262 130.108 60.9685 120.557 56.9C111.619 53.0933 100.31 54.3876 88.8272 61.1369ZM104.579 131.41C124.886 121.84 132.843 98.3758 132.476 82.6799C131.963 60.6993 111.821 50.8078 88.934 65.4458C63.7106 51.1022 45.7306 62.714 46.2441 84.6946C46.6369 101.508 56.2952 124.32 78.0469 132.108C81.4478 133.325 83.3568 132.935 85.7828 132.438C87.0934 132.17 88.5548 131.871 90.4838 131.778C92.8244 131.665 94.6851 131.933 96.373 132.176C99.124 132.571 101.416 132.901 104.579 131.41Z" fill="white"/>
<path fill-rule="evenodd" clip-rule="evenodd" d="M96.2858 121.457C116.593 111.887 122.891 88.4227 122.524 72.7268C122.417 68.1303 121.451 64.0624 119.782 60.637C127.352 64.1859 132.228 72.0079 132.477 82.6794C132.844 98.3753 124.886 121.84 104.58 131.41C101.417 132.9 99.1247 132.571 96.3737 132.175C94.6858 131.932 92.8251 131.665 90.4844 131.778C88.5555 131.871 87.094 132.17 85.7835 132.438C83.3575 132.934 81.4485 133.325 78.0476 132.107C70.0918 129.259 63.7538 124.4 58.8953 118.561C61.2011 119.967 63.7107 121.179 66.4363 122.154C69.944 123.41 72.6086 122.955 75.6379 122.438C77.1321 122.183 78.7151 121.913 80.5319 121.825C82.8128 121.715 84.8658 121.966 86.8062 122.204C90.1021 122.607 93.0734 122.971 96.2858 121.457Z" fill="#ED4A27"/>
<path d="M120.1 78.5534C119.846 80.368 118.17 81.6339 116.356 81.3807C114.541 81.1276 113.275 79.4513 113.528 77.6367C113.781 75.822 115.458 74.5562 117.272 74.8093C119.087 75.0625 120.353 76.7387 120.1 78.5534Z" fill="#C53622"/>
<path d="M129.078 88.158C128.825 89.9726 127.149 91.2385 125.334 90.9853C123.52 90.7322 122.254 89.0559 122.507 87.2413C122.76 85.4266 124.436 84.1608 126.251 84.4139C128.066 84.6671 129.332 86.3433 129.078 88.158Z" fill="#C53622"/>
<path d="M128.887 75.5921C128.697 76.9531 127.44 77.9025 126.079 77.7126C124.718 77.5228 123.769 76.2656 123.959 74.9046C124.149 73.5436 125.406 72.5942 126.767 72.7841C128.128 72.9739 129.077 74.2311 128.887 75.5921Z" fill="#C53622"/>
<path d="M125.816 99.6963C125.563 101.511 123.886 102.777 122.072 102.524C120.257 102.271 118.991 100.594 119.244 98.7796C119.497 96.965 121.174 95.6991 122.988 95.9523C124.803 96.2054 126.069 97.8817 125.816 99.6963Z" fill="#C53622"/>
<path d="M116.837 90.0918C116.584 91.9065 114.908 93.1723 113.093 92.9192C111.278 92.666 110.012 90.9898 110.266 89.1751C110.519 87.3605 112.195 86.0946 114.01 86.3478C115.824 86.6009 117.09 88.2772 116.837 90.0918Z" fill="#C53622"/>
<path d="M120.341 112.274C120.087 114.088 118.411 115.354 116.597 115.101C114.782 114.848 113.516 113.172 113.769 111.357C114.022 109.542 115.699 108.277 117.513 108.53C119.328 108.783 120.594 110.459 120.341 112.274Z" fill="#C53622"/>
<path d="M113.676 102.217C113.422 104.032 111.746 105.297 109.931 105.044C108.117 104.791 106.851 103.115 107.104 101.3C107.357 99.4856 109.034 98.2197 110.848 98.4729C112.663 98.726 113.929 100.402 113.676 102.217Z" fill="#C53622"/>
<path d="M113.764 119.638C113.574 120.999 112.317 121.948 110.956 121.758C109.595 121.568 108.646 120.311 108.836 118.95C109.026 117.589 110.283 116.64 111.644 116.83C113.005 117.019 113.954 118.277 113.764 119.638Z" fill="#C53622"/>
<path d="M107.544 31.487C107.544 31.487 111.229 46.6837 107.349 54.9574C102.671 64.9294 88.5458 65.559 88.5458 65.559C88.5458 65.559 84.269 53.9018 89.9208 43.7656C94.2683 35.9685 107.544 31.487 107.544 31.487Z" fill="#7CD623"/>
<path fill-rule="evenodd" clip-rule="evenodd" d="M111.168 30.6082L107.544 31.4872L106.351 27.9539C107.342 27.6194 108.428 27.7163 109.344 28.2211C110.26 28.7258 110.922 29.5919 111.168 30.6082ZM104.039 32.8942C106.114 31.9699 107.544 31.4872 107.544 31.4872C107.544 31.4872 107.896 32.9388 108.268 35.1891C109.099 40.2196 110.03 49.241 107.349 54.9576C102.671 64.9296 88.546 65.5592 88.546 65.5592C88.546 65.5592 84.2691 53.902 89.9209 43.7658C92.8416 38.5277 99.7916 34.786 104.039 32.8942ZM88.546 65.5592C85.045 66.8437 85.0445 66.8424 85.0441 66.8411L85.0407 66.8318L85.0348 66.8156L85.0186 66.7702C85.0059 66.7343 84.9894 66.6871 84.9696 66.6289C84.9299 66.5126 84.8769 66.3525 84.8142 66.1519C84.6887 65.7509 84.5236 65.1859 84.3481 64.4834C83.9981 63.0826 83.6005 61.1111 83.3988 58.7859C82.9991 54.178 83.3463 47.8995 86.6639 41.9497C89.3812 37.0764 94.5999 33.586 98.5848 31.4246C100.659 30.2996 102.578 29.4407 103.978 28.8624C104.681 28.5722 105.259 28.3502 105.668 28.1985C105.873 28.1226 106.036 28.064 106.152 28.0232C106.209 28.0028 106.255 27.9868 106.289 27.9752L106.33 27.9612L106.348 27.9551L106.351 27.9539C106.352 27.9536 106.351 27.9539 107.544 31.4872C111.168 30.6082 111.168 30.6075 111.168 30.6082L111.17 30.6162L111.173 30.6298L111.184 30.6733L111.219 30.8245C111.248 30.9531 111.29 31.1365 111.34 31.3694C111.44 31.8347 111.577 32.4991 111.727 33.3185C112.027 34.9528 112.385 37.227 112.616 39.7845C113.059 44.6896 113.12 51.4351 110.725 56.5412C107.763 62.8564 101.931 65.9809 97.3972 67.5274C95.0809 68.3174 92.9462 68.752 91.3928 68.9909C90.6121 69.1109 89.9674 69.1831 89.5067 69.2259C89.276 69.2473 89.0906 69.2614 88.9564 69.2704C88.8892 69.275 88.8348 69.2782 88.7939 69.2805L88.7426 69.2832L88.7247 69.2841L88.7177 69.2844L88.7147 69.2845C88.7133 69.2846 88.712 69.2847 88.546 65.5592ZM85.045 66.8437L88.546 65.5592L88.712 69.2847C87.0883 69.357 85.6048 68.3695 85.045 66.8437Z" fill="white"/>
<path d="M104.85 55.0142C108.333 48.7677 106.284 36.0633 106.284 36.0633C95.9308 46.819 93.3247 58.7694 92.7334 63.0847C92.7334 63.0847 101.367 61.2607 104.85 55.0142Z" fill="#6FC21C"/>
<path d="M69.0875 49.0447C72.6725 49.9013 84.5583 60.0147 87.8905 66.312C88.1685 66.8374 89.6024 66.0151 89.3664 65.555C87.4663 59.5569 81.4054 45.399 76.5316 41.1322C70.1117 40.997 68.8857 47.6956 69.0875 49.0447Z" fill="#943D31"/>
<path fill-rule="evenodd" clip-rule="evenodd" d="M68.221 52.6718C66.7412 52.3182 65.6246 51.1012 65.3995 49.5965C65.2492 48.5919 65.3968 47.3957 65.6278 46.3874C65.8843 45.2682 66.3454 43.9333 67.1195 42.6288C68.7406 39.8969 71.7881 37.3023 76.6102 37.4039C77.4867 37.4223 78.3286 37.7489 78.9881 38.3264C80.6087 39.7451 82.1279 41.7855 83.4743 43.9059C84.8538 46.0785 86.1941 48.5648 87.4133 51.0541C89.8003 55.9277 91.8339 61.042 92.8665 64.2563C93.6326 66.22 92.5366 67.8281 92.2 68.2539C91.6973 68.8899 91.0884 69.3157 90.6001 69.5806C90.1215 69.8404 89.3868 70.148 88.4996 70.2023C87.6488 70.2544 85.6513 70.0536 84.5944 68.0562C83.2556 65.526 79.8767 61.7893 76.1012 58.4207C74.2687 56.7857 72.4589 55.3411 70.9338 54.2756C70.17 53.7421 69.5152 53.33 68.9918 53.0423C68.5187 52.7823 68.2769 52.6932 68.2271 52.6749C68.2166 52.671 68.2146 52.6703 68.221 52.6718ZM89.3665 65.5551C89.3644 65.5482 89.3622 65.5414 89.36 65.5345C89.1074 64.7385 88.7821 63.8001 88.3964 62.7611C87.9066 61.4415 87.3195 59.9596 86.6605 58.4009C83.9203 51.9202 79.9364 44.1129 76.5317 41.1322C70.1118 40.997 68.8858 47.6956 69.0876 49.0447C71.6722 49.6623 78.5711 55.0911 83.4688 60.4326C84.5053 61.5629 85.4521 62.6894 86.2495 63.7655C86.8429 64.5663 87.3534 65.3392 87.7566 66.0651C87.8027 66.148 87.8474 66.2304 87.8906 66.3121C88.1686 66.8374 89.6025 66.0151 89.3665 65.5551ZM85.7789 66.579C85.8413 66.7981 85.9292 67.0247 86.0484 67.2569C85.9535 67.072 85.8743 66.8794 85.8115 66.6812C85.8008 66.6474 85.7899 66.6134 85.7789 66.579Z" fill="white"/>
<path d="M77.7733 41.2567C78.9446 42.5063 78.1286 45.1743 75.9507 47.2159C73.7727 49.2575 71.0576 49.8996 69.8863 48.6501C68.7149 47.4005 69.5309 44.7325 71.7089 42.6909C73.8868 40.6493 76.602 40.0072 77.7733 41.2567Z" fill="#C26649"/>
<path d="M71.2431 65.5669C76.1749 67.9941 77.2213 75.9587 73.5805 83.3563C69.9397 90.7538 62.9903 94.7831 58.0586 92.3559C53.1269 89.9287 52.0804 81.9641 55.7212 74.5666C59.362 67.169 66.3114 63.1397 71.2431 65.5669Z" fill="#FF896F"/>
<path fill-rule="evenodd" clip-rule="evenodd" d="M65.5338 71.5041C67.1154 72.8233 67.328 75.1749 66.0088 76.7565C65.1497 77.7865 64.5876 78.8734 64.2745 80.0369C63.7395 82.0258 61.6935 83.2043 59.7046 82.6693C57.7158 82.1343 56.5372 80.0882 57.0723 78.0994C57.679 75.844 58.7647 73.7974 60.2814 71.9791C61.6006 70.3975 63.9522 70.1848 65.5338 71.5041Z" fill="white"/>
</g>
<defs>
<filter id="filter0_d_0_887" x="36.9044" y="25.1579" width="122.913" height="138.087" filterUnits="userSpaceOnUse" color-interpolation-filters="sRGB">
<feFlood flood-opacity="0" result="BackgroundImageFix"/>
<feColorMatrix in="SourceAlpha" type="matrix" values="0 0 0 0 0 0 0 0 0 0 0 0 0 0 0 0 0 0 127 0" result="hardAlpha"/>
<feOffset dx="9" dy="12"/>
<feGaussianBlur stdDeviation="7.3"/>
<feComposite in2="hardAlpha" operator="out"/>
<feColorMatrix type="matrix" values="0 0 0 0 0.993115 0 0 0 0 0.743134 0 0 0 0 0.689567 0 0 0 1 0"/>
<feBlend mode="normal" in2="BackgroundImageFix" result="effect1_dropShadow_0_887"/>
<feBlend mode="normal" in="SourceGraphic" in2="effect1_dropShadow_0_887" result="shape"/>
</filter>
</defs>
</svg>
