<svg width="398" height="410" viewBox="0 0 398 410" fill="none" xmlns="http://www.w3.org/2000/svg">
<path d="M345.419 216.825C349.694 208.023 351.087 199.353 350.265 191.398C349.59 184.861 351.431 178.15 355.28 172.566C355.55 172.174 355.829 171.787 356.118 171.408L367.317 156.706C373.669 148.368 372.968 136.695 365.403 130.571C357.553 124.217 345.688 126.145 339.141 134.739L332.998 142.804C327.444 150.094 318.89 154.355 310.174 154.142C301.663 153.935 292.596 156.359 283.812 162.159C253.348 182.271 219.173 196.112 183.373 202.31C147.573 208.508 111.876 206.763 78.5604 197.692C57.7236 192.019 38.6596 202.152 28.1898 217.846C17.677 233.605 15.8292 254.972 29.5586 271.58C46.2313 291.75 67.4877 308.107 92.3613 319.071C157.682 347.865 236.176 334.276 293.793 284.199C315.754 265.11 333.174 242.031 345.419 216.825Z" fill="#EEBF00"/>
<path d="M355.28 172.566C355.55 172.174 355.829 171.787 356.118 171.408L361.992 163.696L367.317 156.706C373.669 148.368 372.968 136.696 365.403 130.571C357.553 124.217 345.688 126.145 339.141 134.739L333.462 142.194L332.998 142.804C327.444 150.094 318.89 154.355 310.174 154.143C301.663 153.935 292.596 156.359 283.812 162.159C253.348 182.271 219.173 196.112 183.373 202.31C147.573 208.508 111.876 206.764 78.5604 197.692C57.7236 192.019 38.6596 202.152 28.1898 217.846C72.8196 259.683 134.363 278.578 197.121 269.707C259.46 260.894 317.002 225.529 355.28 172.566Z" fill="#FFD422"/>
<path d="M370.415 153.209L375.74 146.219C382.092 137.881 381.391 126.209 373.825 120.084C365.976 113.73 354.111 115.658 347.564 124.252L341.885 131.708C349.29 141.352 359.109 148.752 370.415 153.209Z" fill="#AA6100"/>
<path d="M90.2275 295.916C86.6362 300.509 72.0258 298.687 59 288.5C45.9742 278.313 39.4655 263.619 43.0568 259.027C46.6482 254.435 60.1191 258.97 73.1449 269.157C86.1708 279.343 93.8189 291.324 90.2275 295.916Z" fill="white"/>
<path d="M275.787 182.272C274.139 178.389 281.118 169.48 293.056 164.413C304.993 159.345 317.367 160.038 319.016 163.921C320.664 167.804 312.323 175.059 300.386 180.127C288.449 185.194 277.436 186.155 275.787 182.272Z" fill="white" fill-opacity="0.85"/>
</svg>
