<svg width="185" height="185" viewBox="0 0 185 185" fill="none" xmlns="http://www.w3.org/2000/svg">
<g clip-path="url(#clip0_0_3125)">
<g filter="url(#filter0_d_0_3125)">
<path d="M134.896 115.625C134.896 141.168 114.189 161.875 88.646 161.875C63.1028 161.875 42.396 141.168 42.396 115.625C42.396 90.0818 63.1028 69.375 88.646 69.375C114.189 69.375 134.896 90.0818 134.896 115.625Z" fill="#FFAC2F"/>
<path fill-rule="evenodd" clip-rule="evenodd" d="M138.75 115.625C138.75 143.297 116.317 165.729 88.6457 165.729C60.9739 165.729 38.5415 143.297 38.5415 115.625C38.5415 87.9533 60.9739 65.5209 88.6457 65.5209C116.317 65.5209 138.75 87.9533 138.75 115.625ZM88.6457 161.875C114.189 161.875 134.896 141.168 134.896 115.625C134.896 90.0819 114.189 69.375 88.6457 69.375C63.1025 69.375 42.3957 90.0819 42.3957 115.625C42.3957 141.168 63.1025 161.875 88.6457 161.875Z" fill="white"/>
<path fill-rule="evenodd" clip-rule="evenodd" d="M88.646 161.875C114.189 161.875 134.896 141.168 134.896 115.625C134.896 90.0818 114.189 69.375 88.646 69.375C86.8093 69.375 84.9976 69.4821 83.2169 69.6903C100.655 72.018 114.106 86.9512 114.106 105.026C114.106 124.716 98.1443 140.677 78.4548 140.677C59.8973 140.677 44.6515 126.498 42.9597 108.383C42.5886 110.742 42.396 113.161 42.396 115.625C42.396 141.168 63.1028 161.875 88.646 161.875Z" fill="#FF862F"/>
<path d="M117.966 103.787C117.966 105.84 116.302 107.504 114.249 107.504C112.197 107.504 110.533 105.84 110.533 103.787C110.533 101.735 112.197 100.071 114.249 100.071C116.302 100.071 117.966 101.735 117.966 103.787Z" fill="#DD7429"/>
<path d="M129.115 111.22C129.115 113.273 127.451 114.937 125.399 114.937C123.346 114.937 121.682 113.273 121.682 111.22C121.682 109.168 123.346 107.504 125.399 107.504C127.451 107.504 129.115 109.168 129.115 111.22Z" fill="#DD7429"/>
<path d="M127.257 99.1415C127.257 100.681 126.009 101.929 124.47 101.929C122.93 101.929 121.682 100.681 121.682 99.1415C121.682 97.6021 122.93 96.3541 124.47 96.3541C126.009 96.3541 127.257 97.6021 127.257 99.1415Z" fill="#DD7429"/>
<path d="M129.523 127.188C129.523 130.38 126.935 132.969 123.742 132.969C120.549 132.969 117.96 130.38 117.96 127.188C117.96 123.995 120.549 121.406 123.742 121.406C126.935 121.406 129.523 123.995 129.523 127.188Z" fill="#DD7429"/>
<path d="M117.966 116.795C117.966 118.848 116.302 120.512 114.249 120.512C112.197 120.512 110.533 118.848 110.533 116.795C110.533 114.742 112.197 113.078 114.249 113.078C116.302 113.078 117.966 114.742 117.966 116.795Z" fill="#DD7429"/>
<path d="M121.683 139.232C121.683 141.284 120.019 142.948 117.966 142.948C115.913 142.948 114.25 141.284 114.25 139.232C114.25 137.179 115.913 135.515 117.966 135.515C120.019 135.515 121.683 137.179 121.683 139.232Z" fill="#DD7429"/>
<path d="M111.904 146.321C111.904 148.373 110.24 150.037 108.187 150.037C106.135 150.037 104.471 148.373 104.471 146.321C104.471 144.268 106.135 142.604 108.187 142.604C110.24 142.604 111.904 144.268 111.904 146.321Z" fill="#DD7429"/>
<path d="M112.459 133.657C112.459 135.71 110.795 137.374 108.742 137.374C106.69 137.374 105.026 135.71 105.026 133.657C105.026 131.604 106.69 129.941 108.742 129.941C110.795 129.941 112.459 131.604 112.459 133.657Z" fill="#DD7429"/>
<path d="M98.8321 151.379C98.8321 152.919 97.5841 154.167 96.0447 154.167C94.5053 154.167 93.2573 152.919 93.2573 151.379C93.2573 149.84 94.5053 148.592 96.0447 148.592C97.5841 148.592 98.8321 149.84 98.8321 151.379Z" fill="#DD7429"/>
<path d="M124.958 68.6375C124.958 68.6375 116.149 53.5903 107.195 53.1985C98.241 52.8068 90.6276 60.5956 90.6276 60.5956C90.6276 60.5956 97.5317 69.0196 106.486 69.4113C115.44 69.8031 124.958 68.6375 124.958 68.6375Z" fill="#64AC1D"/>
<path fill-rule="evenodd" clip-rule="evenodd" d="M128.284 66.6902L124.958 68.6374L125.426 72.463C126.714 72.3052 127.836 71.5101 128.412 70.3472C128.988 69.1844 128.94 67.81 128.284 66.6902ZM90.6275 60.5955C87.8713 57.9014 87.8722 57.9005 87.873 57.8996L87.8792 57.8933L87.89 57.8824L87.92 57.8522C87.9438 57.8283 87.975 57.7972 88.0136 57.7593C88.0908 57.6834 88.1974 57.5803 88.3318 57.4538C88.6004 57.2012 88.9819 56.8542 89.4639 56.4453C90.424 55.631 91.8039 54.5536 93.5037 53.4861C96.8278 51.3985 101.766 49.103 107.363 49.3479C110.625 49.4906 113.567 50.9374 115.965 52.623C118.394 54.3309 120.564 56.4949 122.34 58.5324C124.129 60.5849 125.603 62.6077 126.626 64.1093C127.14 64.8635 127.547 65.4946 127.828 65.9432C127.968 66.1677 128.078 66.3471 128.155 66.4739C128.193 66.5373 128.223 66.5877 128.245 66.624L128.271 66.6679L128.279 66.6818L128.282 66.6867L128.284 66.6902C128.285 66.691 128.284 66.6902 124.958 68.6374C125.426 72.463 125.427 72.4629 125.426 72.463L125.39 72.4674L125.298 72.4782C125.22 72.4874 125.106 72.5006 124.96 72.5169C124.669 72.5496 124.247 72.5952 123.714 72.6484C122.65 72.7548 121.141 72.8918 119.346 73.0161C115.773 73.2637 110.996 73.4664 106.317 73.2617C100.72 73.0168 96.0009 70.2988 92.8718 67.9288C91.2717 66.717 89.9912 65.5232 89.1059 64.6281C88.6615 64.1788 88.3118 63.7997 88.0662 63.5246C87.9433 63.3869 87.8462 63.2749 87.7759 63.1926C87.7408 63.1514 87.7123 63.1177 87.6907 63.0918L87.6635 63.0591L87.6537 63.0473L87.6481 63.0404C87.6473 63.0395 87.6466 63.0386 90.6275 60.5955ZM90.6275 60.5955L87.8713 57.9014C86.4981 59.3062 86.4013 61.5191 87.6466 63.0386L90.6275 60.5955ZM122.556 65.0167C119.331 60.5379 113.297 53.4653 107.195 53.1984C98.2409 52.8066 90.6275 60.5955 90.6275 60.5955C90.6275 60.5955 97.5316 69.0195 106.486 69.4112C111.676 69.6383 117.056 69.3421 120.662 69.053C123.276 68.8433 124.958 68.6374 124.958 68.6374C124.958 68.6374 124.064 67.1104 122.556 65.0167Z" fill="white"/>
<path d="M135.989 33.3533C135.989 33.3533 125.403 52.0042 114.105 57.9599C102.807 63.9155 88.2566 58.5151 88.2566 58.5151C88.2566 58.5151 92.0235 43.4587 103.321 37.5031C114.619 31.5475 135.989 33.3533 135.989 33.3533Z" fill="#87D623"/>
<path fill-rule="evenodd" clip-rule="evenodd" d="M139.341 35.2558L135.989 33.3533L136.314 29.5128C137.623 29.6235 138.786 30.3936 139.399 31.556C140.011 32.7184 139.99 34.113 139.341 35.2558ZM131.628 33.1379C134.303 33.2108 135.989 33.3533 135.989 33.3533C135.989 33.3533 135.154 34.8247 133.703 37.0729C129.986 42.829 122.23 53.677 114.105 57.9599C102.807 63.9155 88.2568 58.5151 88.2568 58.5151C88.2568 58.5151 92.0237 43.4587 103.322 37.5031C111.446 33.2203 124.779 32.9512 131.628 33.1379ZM88.2568 58.5151C84.5178 57.5797 84.5181 57.5785 84.5184 57.5773L84.5208 57.5679L84.5252 57.5506L84.5383 57.4997C84.5491 57.4586 84.5637 57.4032 84.5824 57.3343C84.6198 57.1966 84.6735 57.0046 84.7445 56.7645C84.8862 56.2846 85.0976 55.6102 85.3864 54.7897C85.9624 53.1535 86.8559 50.9103 88.136 48.4587C90.6547 43.6345 94.8832 37.5945 101.524 34.0936C107.984 30.6883 116.899 29.6404 123.725 29.3443C127.227 29.1924 130.355 29.2336 132.608 29.3124C133.737 29.3519 134.651 29.4009 135.288 29.4406C135.607 29.4605 135.857 29.478 136.031 29.4908C136.117 29.4972 136.185 29.5024 136.232 29.5062L136.288 29.5107L136.305 29.5121L136.314 29.5128C136.314 29.5129 136.314 29.5128 135.989 33.3533C139.341 35.2558 139.341 35.2551 139.341 35.2558L139.337 35.2634L139.329 35.2778L139.301 35.3266C139.277 35.368 139.243 35.4267 139.199 35.5019C139.112 35.6522 138.985 35.8683 138.821 36.1425C138.494 36.6908 138.018 37.4726 137.413 38.426C136.204 40.3296 134.471 42.9337 132.366 45.7369C128.265 51.2014 122.363 57.964 115.903 61.3693C109.261 64.8702 101.889 64.9456 96.4854 64.2976C93.7394 63.9683 91.3837 63.4378 89.7084 62.9885C88.8682 62.7631 88.1923 62.5563 87.7163 62.4021C87.4781 62.325 87.2894 62.2608 87.1546 62.2138C87.0872 62.1903 87.0332 62.1711 86.9933 62.1567L86.9438 62.1388L86.9271 62.1327L86.918 62.1293C86.9168 62.1289 86.9157 62.1285 88.2568 58.5151ZM84.5178 57.5797L88.2568 58.5151L86.9157 62.1285C85.0739 61.4449 84.041 59.4855 84.5178 57.5797Z" fill="white"/>
<path d="M113.128 56.2413C122.734 51.1777 132.027 35.8767 132.027 35.8767C110.185 41.4426 95.8708 52.4579 91.4442 57.2697C91.4442 57.2697 103.522 61.3049 113.128 56.2413Z" fill="#79C01E"/>
<path d="M71.1985 48.4701C75.1567 50.1041 84.7921 65.5208 87.472 73.3519C87.6956 74.0053 89.4903 73.3221 89.3031 72.7513C88.2121 65.5236 83.8285 48.177 79.0108 42.3958C73.3623 42.7313 71.2119 46.8854 71.1985 48.4701Z" fill="#8C5936"/>
<path fill-rule="evenodd" clip-rule="evenodd" d="M69.6927 52.018C68.2591 51.4097 67.3311 49.9972 67.3443 48.4375C67.3616 46.3874 68.5014 44.0503 70.2304 42.2752C72.1274 40.3277 74.9725 38.7747 78.7821 38.5484C80.004 38.4758 81.1878 38.988 81.9715 39.9284C83.5295 41.798 84.8806 44.3656 86.0345 47.0294C87.2137 49.7519 88.2944 52.8305 89.2381 55.8977C91.0893 61.9151 92.4899 68.1411 93.0853 71.989C93.5565 74.1349 92.1678 75.6168 91.74 76.0112C91.108 76.594 90.394 76.9433 89.8278 77.1438C89.2722 77.3405 88.446 77.5404 87.51 77.4504C86.6113 77.3641 84.5876 76.8275 83.8253 74.5998C82.6305 71.1084 79.7386 65.5959 76.5725 60.6714C75.0069 58.2363 73.4427 56.0525 72.0764 54.4171C71.3916 53.5976 70.8002 52.9684 70.3205 52.529C69.8921 52.1365 69.6866 52.0201 69.6884 52.0168C69.6886 52.0165 69.69 52.0169 69.6927 52.018ZM89.3029 72.7513C89.3017 72.7431 89.3004 72.7348 89.2992 72.7266C89.1741 71.9009 89.0064 70.9444 88.8002 69.889C88.466 68.1782 88.0308 66.2076 87.5126 64.1136C85.5464 56.1678 82.385 46.445 79.0106 42.3957C76.1427 42.5661 74.1765 43.7209 72.934 45.0239C72.7048 45.2643 72.5003 45.5097 72.3192 45.7549C71.5486 46.7984 71.2037 47.8384 71.1983 48.4701C74.0535 49.6488 79.8628 57.9991 83.8846 65.5007C84.8236 67.2522 85.6652 68.9574 86.3489 70.5142C86.7439 71.4135 87.0862 72.2633 87.3643 73.044C87.4013 73.1479 87.4371 73.2505 87.4718 73.3519C87.6954 74.0052 89.4901 73.3221 89.3029 72.7513ZM85.478 73.2352C85.5064 73.4633 85.5588 73.7027 85.6407 73.9525C85.5738 73.7484 85.524 73.539 85.4919 73.3266C85.4874 73.2963 85.4827 73.2659 85.478 73.2352Z" fill="white"/>
<path d="M80.2938 43.0651C81.3252 44.4991 80.1351 47.119 77.6357 48.9167C75.1362 50.7144 72.2739 51.0093 71.2425 49.5753C70.2111 48.1413 71.4012 45.5214 73.9006 43.7237C76.4001 41.926 79.2624 41.6311 80.2938 43.0651Z" fill="#C27A49"/>
<path d="M81.8135 86.0697C85.0284 91.5872 80.9254 99.9693 72.6491 104.792C64.3729 109.614 55.0575 109.05 51.8426 103.533C48.6277 98.0154 52.7307 89.6333 61.007 84.811C69.2832 79.9887 78.5986 80.5522 81.8135 86.0697Z" fill="#FFC671"/>
<path fill-rule="evenodd" clip-rule="evenodd" d="M65.6808 90.871C66.8174 92.6707 66.2797 95.0511 64.4799 96.1876C63.1067 97.0548 62.0464 98.104 61.2455 99.3394C60.0876 101.126 57.7011 101.635 55.9149 100.477C54.1288 99.3192 53.6195 96.9326 54.7773 95.1464C56.2138 92.9305 58.0939 91.1037 60.3642 89.67C62.1639 88.5335 64.5443 89.0712 65.6808 90.871Z" fill="white"/>
</g>
</g>
<defs>
<filter id="filter0_d_0_3125" x="16.4415" y="10.1418" width="157.502" height="192.687" filterUnits="userSpaceOnUse" color-interpolation-filters="sRGB">
<feFlood flood-opacity="0" result="BackgroundImageFix"/>
<feColorMatrix in="SourceAlpha" type="matrix" values="0 0 0 0 0 0 0 0 0 0 0 0 0 0 0 0 0 0 127 0" result="hardAlpha"/>
<feOffset dx="6" dy="9"/>
<feGaussianBlur stdDeviation="14.05"/>
<feComposite in2="hardAlpha" operator="out"/>
<feColorMatrix type="matrix" values="0 0 0 0 0.988285 0 0 0 0 0.690939 0 0 0 0 0.477145 0 0 0 1 0"/>
<feBlend mode="normal" in2="BackgroundImageFix" result="effect1_dropShadow_0_3125"/>
<feBlend mode="normal" in="SourceGraphic" in2="effect1_dropShadow_0_3125" result="shape"/>
</filter>
<clipPath id="clip0_0_3125">
<rect width="185" height="185" fill="white"/>
</clipPath>
</defs>
</svg>
