<svg id="icons" xmlns="http://www.w3.org/2000/svg" viewBox="0 0 48 48"><title>eraser</title><g id="eraser"><g id="fill"><path d="M38.81,21.36,24.41,35.5H20.07l-8-7.57a3.07,3.07,0,0,1,0-4.34L16.68,19l9.9-9.89Z" fill="#fff"/><path d="M26.58,9.13l7.23-7.24a3.08,3.08,0,0,1,4.34,0l8,8a3.07,3.07,0,0,1,0,4.34l-7.29,7.17" fill="#b1bfc9"/><polygon points="38.87 21.42 29.11 31.13 16.9 19.26 26.58 9.13 38.87 21.42" fill="#fc3768"/></g><g id="outline"><path d="M24.41,36.5H20.07a1,1,0,0,1-.69-.28l-7.95-7.56a4.09,4.09,0,0,1,0-5.78L33.1,1.19a4.07,4.07,0,0,1,5.76,0l8,8a4.07,4.07,0,0,1,0,5.76L25.11,36.21A1,1,0,0,1,24.41,36.5Zm-3.94-2H24l21.4-21a2.08,2.08,0,0,0,0-2.92l-8-8a2.08,2.08,0,0,0-2.92,0L12.83,24.3a2.07,2.07,0,0,0,0,2.93Z" fill="#252b33"/><rect x="31.73" y="6.58" width="2" height="17.38" transform="translate(-1.21 27.61) rotate(-45)" fill="#252b33"/><rect x="21.23" y="15.89" width="2" height="17.38" transform="translate(-10.87 22.92) rotate(-45)" fill="#252b33"/><path d="M13.78,36.5H1a1,1,0,0,1,0-2H13.78a1,1,0,1,1,0,2Z" fill="#252b33"/><path d="M13.78,48H1a1,1,0,0,1,0-2H13.78a1,1,0,1,1,0,2Z" fill="#252b33"/><path d="M24,42.25H6.11a1,1,0,1,1,0-2H24a1,1,0,0,1,0,2Z" fill="#252b33"/></g></g></svg>