<?xml version="1.0" encoding="UTF-8" standalone="no"?> <svg id="Layer_1" data-name="Layer 1" xmlns="http://www.w3.org/2000/svg" viewBox="0 0 256 256"><defs><style>.cls-1{fill:#40bdff;}.cls-2{fill:#effafe;}.cls-3{fill:#2197f7;}.cls-4{fill:#e4ebed;}.cls-5{fill:#fd0;}.cls-6{fill:#263238;}</style></defs><title>notes job seeker employee unemployee work</title><path class="cls-1" d="M223.94,68.75l-1,.09L58.18,219l3.25,18.42a8,8,0,0,0,9.29,6.5l170.66-30.09a8,8,0,0,0,6.51-9.29Z"/><path class="cls-2" d="M29.62,25.62V206.94a8,8,0,0,0,8,8H169.38V167.38a2,2,0,0,1,2-2h47.57V25.62Z"/><path class="cls-3" d="M247.88,204.5,223.94,68.75l-4.06-1.87-3.82,8.23L238.88,204.5a8,8,0,0,1-6.51,9.29L65.77,243.16a8,8,0,0,0,4.94.72l170.66-30.09A8,8,0,0,0,247.88,204.5Z"/><path class="cls-4" d="M209.94,25.62V165.38h9V25.62Z"/><rect class="cls-5" x="32.27" y="45.75" width="34.32" height="7.35" transform="translate(-20.47 49.43) rotate(-45)"/><polygon class="cls-2" points="190.75 190.74 212.12 169.38 169.38 169.38 169.38 212.12 190.75 190.74"/><polygon class="cls-4" points="207.12 169.38 185.75 190.74 169.38 207.12 169.38 212.12 190.75 190.74 212.12 169.38 207.12 169.38"/><path class="cls-5" d="M55.61,37.39,33,14.74A9.34,9.34,0,0,0,19.74,28L42.39,50.61Z"/><rect class="cls-5" x="32.27" y="45.75" width="34.32" height="7.35" transform="translate(-20.47 49.43) rotate(-45)"/><path class="cls-5" d="M55.61,37.39,33,14.74A9.34,9.34,0,0,0,19.74,28L42.39,50.61Z"/><path class="cls-6" d="M219.44,40V23.62a2.5,2.5,0,0,0-2.5-2.5H40.7l-9.56-9.56A13.84,13.84,0,0,0,11.56,31.14l9.56,9.56V206.94a12.53,12.53,0,0,0,12.52,12.52H49.69l3.3,18.7a12.51,12.51,0,0,0,14.5,10.15l170.66-30.09a12.52,12.52,0,0,0,10.16-14.5ZM15.09,27.6A8.85,8.85,0,0,1,27.6,15.09l22.3,22.3L37.39,49.9ZM59,35.4l4.49,4.49L39.89,63.45,35.4,59Zm-7.17,179H33.64a7.53,7.53,0,0,1-7.52-7.52V45.69l7.74,7.74L30.1,57.19a2.5,2.5,0,0,0,0,3.54l8,8a2.5,2.5,0,0,0,3.54,0L53.44,57,67.72,71.25a2.5,2.5,0,1,0,3.54-3.54L57,53.44,68.75,41.66a2.5,2.5,0,0,0,0-3.54l-8-8a2.5,2.5,0,0,0-3.54,0l-3.76,3.76L45.7,26.12H214.44c0,4.6,0,134.17,0,138.76H167.38a2.5,2.5,0,0,0-2.5,2.5v47.07Zm159.12-44.57L190.4,190.39l-20.53,20.53v-41Zm26.37,43.42L66.62,243.38a7.53,7.53,0,0,1-8.71-6.1l-3.14-17.83h112.6a2.5,2.5,0,0,0,1.77-.73l49.57-49.57a2.49,2.49,0,0,0,.39-.53l.08-.15a2.49,2.49,0,0,0,.21-.58s0-.05,0-.08a2.5,2.5,0,0,0,0-.43V68.83l23.94,135.75A7.52,7.52,0,0,1,237.28,213.29Z"/><path class="cls-6" d="M66.2,83.19H194.25a2.5,2.5,0,0,0,0-5H66.2a2.5,2.5,0,0,0,0,5Z"/><path class="cls-6" d="M46.31,103.09H194.25a2.5,2.5,0,1,0,0-5H46.31a2.5,2.5,0,1,0,0,5Z"/><path class="cls-6" d="M46.31,123H194.25a2.5,2.5,0,0,0,0-5H46.31a2.5,2.5,0,1,0,0,5Z"/><path class="cls-6" d="M46.31,142.88H194.25a2.5,2.5,0,0,0,0-5H46.31a2.5,2.5,0,0,0,0,5Z"/><path class="cls-6" d="M147.48,157.78H46.31a2.5,2.5,0,0,0,0,5H147.48a2.5,2.5,0,0,0,0-5Z"/><path class="cls-6" d="M147.48,177.67H46.31a2.5,2.5,0,0,0,0,5H147.48a2.5,2.5,0,0,0,0-5Z"/><path class="cls-6" d="M147.48,197.57H46.31a2.5,2.5,0,0,0,0,5H147.48a2.5,2.5,0,0,0,0-5Z"/><path class="cls-5" d="M239.1,52h-4V48a1,1,0,0,0-2,0v4h-4a1,1,0,0,0,0,2h4v4a1,1,0,0,0,2,0V54h4a1,1,0,0,0,0-2Z"/><path class="cls-1" d="M233.1,20.5h-4v-4a1,1,0,0,0-2,0v4h-4a1,1,0,0,0,0,2h4v4a1,1,0,0,0,2,0v-4h4a1,1,0,0,0,0-2Z"/><path class="cls-1" d="M236,90.79a6,6,0,1,1,6-6A6,6,0,0,1,236,90.79Zm0-10a4,4,0,1,0,4,4A4,4,0,0,0,236,80.79Z"/></svg>