<?xml version="1.0" encoding="iso-8859-1"?>
<!-- Generator: Adobe Illustrator 19.0.0, SVG Export Plug-In . SVG Version: 6.00 Build 0)  -->
<svg version="1.1" id="Layer_1" xmlns="http://www.w3.org/2000/svg" xmlns:xlink="http://www.w3.org/1999/xlink" x="0px" y="0px"
	 viewBox="0 0 512 512" style="enable-background:new 0 0 512 512;" xml:space="preserve">
<g>
	<rect x="144.937" y="33.873" style="fill:#50A5DC;" width="222.127" height="222.127"/>
	<rect x="144.937" y="256" style="fill:#50A5DC;" width="222.127" height="222.127"/>
	<rect x="367.063" y="10" style="fill:#FCE600;" width="52.937" height="492"/>
	<rect x="92" y="10" style="fill:#FCE600;" width="52.937" height="492"/>
	<g>
		<path d="M420,0h-52.937c-5.522,0-10,4.478-10,10v13.873H154.937V10c0-5.522-4.478-10-10-10H92c-5.522,0-10,4.478-10,10v492
			c0,5.522,4.478,10,10,10h52.937c5.522,0,10-4.478,10-10v-13.873h202.127V502c0,5.522,4.478,10,10,10H420c5.522,0,10-4.478,10-10
			V10C430,4.478,425.522,0,420,0z M357.063,43.873V246H154.937V43.873H357.063z M102,293.228v-29.304h32.937v29.304L102,293.228
			L102,293.228z M134.937,313.228v29.304H102v-29.304L134.937,313.228L134.937,313.228z M102,243.924V214.62h32.937v29.304H102z
			 M102,194.62v-29.304h32.937v29.304H102z M134.937,145.316H102v-29.304h32.937V145.316z M102,362.531h32.937v29.304H102V362.531z
			 M134.937,96.013H102V66.709h32.937V96.013z M102,411.835h32.937v29.305H102V411.835z M134.937,20v13.873v12.836H102V20H134.937z
			 M134.937,492H102v-30.86h32.937v16.987V492z M154.937,468.127V266h202.127v202.127H154.937z M377.063,492v-13.873V256V33.873V20
			H410v26.709h-12.835c-5.522,0-10,4.478-10,10s4.478,10,10,10H410v29.304h-12.835c-5.522,0-10,4.478-10,10s4.478,10,10,10H410
			v29.304h-12.835c-5.522,0-10,4.478-10,10s4.478,10,10,10H410v29.304h-12.835c-5.522,0-10,4.478-10,10s4.478,10,10,10H410v29.304
			h-12.835c-5.522,0-10,4.478-10,10c0,5.522,4.478,10,10,10H410v29.304h-12.835c-5.522,0-10,4.478-10,10s4.478,10,10,10H410v29.304
			h-12.835c-5.522,0-10,4.478-10,10s4.478,10,10,10H410v29.304h-12.835c-5.522,0-10,4.478-10,10s4.478,10,10,10H410v29.305h-12.835
			c-5.522,0-10,4.478-10,10s4.478,10,10,10H410V492H377.063z"/>
		<path d="M261.189,86.431h29.063c5.522,0,10-4.478,10-10s-4.478-10-10-10h-29.063c-5.522,0-10,4.478-10,10
			S255.667,86.431,261.189,86.431z"/>
		<path d="M185.418,190.228c5.522,0,10-4.478,10-10V86.431h21.139c5.522,0,10-4.478,10-10s-4.478-10-10-10h-31.139
			c-5.522,0-10,4.478-10,10v103.797C175.418,185.75,179.896,190.228,185.418,190.228z"/>
		<path d="M290.253,291.671H261.19c-5.522,0-10,4.478-10,10s4.478,10,10,10h29.063c5.522,0,10-4.478,10-10
			S295.775,291.671,290.253,291.671z"/>
		<path d="M216.557,291.671h-31.139c-5.522,0-10,4.478-10,10v103.798c0,5.522,4.478,10,10,10s10-4.478,10-10v-93.798h21.139
			c5.522,0,10-4.478,10-10S222.079,291.671,216.557,291.671z"/>
	</g>
</g>
<g>
</g>
<g>
</g>
<g>
</g>
<g>
</g>
<g>
</g>
<g>
</g>
<g>
</g>
<g>
</g>
<g>
</g>
<g>
</g>
<g>
</g>
<g>
</g>
<g>
</g>
<g>
</g>
<g>
</g>
</svg>
